<?xml version="1.0" encoding="utf-8"?>
<!-- Generator: Adobe Illustrator 27.5.0, SVG Export Plug-In . SVG Version: 6.00 Build 0)  -->
<svg version="1.1" id="Layer_1" xmlns="http://www.w3.org/2000/svg" xmlns:xlink="http://www.w3.org/1999/xlink" x="0px" y="0px"
	 viewBox="0 0 180 100" style="enable-background:new 0 0 180 100;" xml:space="preserve">
<g>
	<defs>
		<rect id="SVGID_1_" x="0" y="0" width="180" height="100"/>
	</defs>
	<clipPath id="SVGID_00000008135657470140988860000016899206133051567802_">
		<use xlink:href="#SVGID_1_"  style="overflow:visible;"/>
	</clipPath>
	
		<rect x="0" y="0" style="clip-path:url(#SVGID_00000008135657470140988860000016899206133051567802_);fill:#FFC0CE;" width="180" height="100"/>
	<path style="opacity:0.5;clip-path:url(#SVGID_00000008135657470140988860000016899206133051567802_);fill:#F7AEBB;" d="
		M191.604,87.589c-0.7-0.165-1.436-0.226-2.163-0.197c0.021-0.065,0.049-0.126,0.07-0.187c0.385-1.11,0.527-2.538,0.146-3.662
		c-0.392-1.153-0.982-2.286-1.783-3.213c-1.508-1.744-3.781-2.706-6.04-3.013c-1.199-0.161-2.377-0.071-3.563,0.119
		c-0.01-0.893-0.126-1.785-0.349-2.656c-0.588-2.296-2.425-4.301-4.347-5.638c-2.03-1.414-4.523-1.622-6.894-1.111
		c-0.246,0.055-0.493,0.126-0.733,0.2c-0.855-1.906-3.042-3.016-5.04-3.423c-1.327-0.268-2.787-0.17-4.084,0.193
		c-1.254,0.349-2.3,1.021-3.284,1.841c-0.962,0.804-1.716,1.925-2.286,3.028c-0.617,1.211-0.721,2.635-0.68,3.972
		c0.036,1.098,0.414,2.067,0.977,2.971c-0.278,0.146-0.542,0.316-0.788,0.53c-0.787,0.685-1.386,1.58-1.656,2.535
		c-0.307-0.132-0.621-0.249-0.949-0.346c-1.237-0.354-2.483-0.449-3.766-0.378c-1.23,0.071-2.439,0.54-3.536,1.089
		c-2.225,1.108-4.353,2.399-5.502,4.692c-0.295,0.581-0.504,1.252-0.617,1.954c-0.209-0.059-0.415-0.111-0.626-0.149
		c-0.452-0.089-0.902-0.135-1.352-0.153c-0.117-0.166-0.238-0.329-0.37-0.481c-1.151-1.332-2.887-2.067-4.612-2.301
		c-0.916-0.122-1.814-0.054-2.72,0.091c-0.008-0.682-0.097-1.363-0.267-2.029c-0.448-1.753-1.852-3.284-3.318-4.304
		c-1.55-1.079-3.454-1.238-5.264-0.849c-0.188,0.043-0.377,0.097-0.559,0.153c-0.655-1.454-2.324-2.303-3.85-2.613
		c-1.013-0.205-2.128-0.13-3.118,0.147c-0.957,0.267-1.756,0.78-2.508,1.406c-0.734,0.614-1.31,1.469-1.745,2.312
		c-0.471,0.925-0.55,2.012-0.52,3.033c0.028,0.837,0.316,1.579,0.746,2.268c-0.212,0.111-0.413,0.241-0.602,0.405
		c-0.602,0.521-1.059,1.205-1.265,1.935c-0.234-0.101-0.474-0.19-0.725-0.265c-0.944-0.27-1.896-0.342-2.876-0.288
		c-0.938,0.055-1.861,0.412-2.699,0.831c-1.025,0.511-2.019,1.075-2.843,1.825c-0.277-0.108-0.562-0.204-0.856-0.274
		c-0.7-0.165-1.438-0.226-2.164-0.197c0.022-0.065,0.049-0.126,0.071-0.187c0.385-1.11,0.526-2.538,0.146-3.662
		c-0.392-1.153-0.982-2.286-1.782-3.213c-1.508-1.744-3.781-2.706-6.041-3.013c-1.199-0.161-2.377-0.071-3.563,0.119
		c-0.01-0.893-0.126-1.785-0.349-2.656c-0.587-2.296-2.425-4.301-4.346-5.638c-2.03-1.414-4.524-1.622-6.895-1.111
		c-0.246,0.055-0.493,0.126-0.732,0.2c-0.856-1.906-3.043-3.016-5.041-3.423c-1.327-0.268-2.786-0.17-4.084,0.193
		c-1.254,0.349-2.3,1.021-3.284,1.841c-0.962,0.804-1.715,1.925-2.286,3.028c-0.616,1.211-0.721,2.635-0.679,3.972
		c0.036,1.098,0.414,2.067,0.976,2.971c-0.278,0.146-0.542,0.316-0.788,0.53c-0.787,0.685-1.386,1.58-1.656,2.535
		c-0.307-0.132-0.62-0.249-0.949-0.346c-1.236-0.354-2.483-0.449-3.766-0.378c-1.23,0.071-2.438,0.54-3.536,1.089
		c-0.868,0.433-1.72,0.896-2.507,1.433c-1.096-0.664-2.361-1.071-3.623-1.242c-1.055-0.141-2.09-0.062-3.133,0.106
		c-0.009-0.786-0.11-1.57-0.307-2.337c-0.517-2.019-2.133-3.782-3.822-4.957c-1.785-1.244-3.978-1.426-6.063-0.978
		c-0.216,0.049-0.434,0.111-0.644,0.177c-0.754-1.676-2.677-2.652-4.434-3.01c-1.167-0.235-2.451-0.15-3.592,0.17
		c-1.102,0.307-2.022,0.898-2.889,1.619c-0.846,0.707-1.508,1.692-2.01,2.663c-0.542,1.065-0.634,2.317-0.598,3.494
		c0.032,0.964,0.364,1.818,0.858,2.612c-0.244,0.128-0.476,0.278-0.692,0.466c-0.692,0.601-1.219,1.388-1.457,2.229
		c-0.269-0.116-0.546-0.219-0.835-0.305c-1.087-0.311-2.184-0.395-3.312-0.332c-1.082,0.063-2.144,0.475-3.109,0.958
		c-1.956,0.974-3.827,2.109-4.838,4.126c-0.259,0.51-0.443,1.101-0.543,1.717c-0.184-0.05-0.366-0.096-0.551-0.13
		c-1.42-0.282-2.839-0.168-4.185,0.363c-2.4,0.946-3.966,3.607-4.101,6.098c-0.157,2.873,1.958,5.404,4.692,6.113
		c1.387,0.358,2.957,0.194,4.301-0.275c0.856-0.298,1.708-0.659,2.47-1.155c0.4,0.531,0.874,1.019,1.429,1.457
		c1.718,1.366,3.94,1.979,6.107,2.159c1.048,0.078,2.018-0.026,3.023-0.299c0.501-0.138,1.006-0.207,1.5-0.372
		c0.528-0.175,1.028-0.403,1.524-0.645c0.799-0.381,1.662-0.87,2.317-1.482c0.259,0.245,0.533,0.471,0.821,0.684
		c1.553,1.165,3.447,1.815,5.39,1.849c2.022,0.034,4.017-0.434,5.858-1.255c1.251-0.555,2.345-1.402,3.3-2.376
		c0.814,0.674,1.775,1.183,2.82,1.454c0.248,0.064,0.508,0.089,0.766,0.124c0.726,0.254,1.466,0.469,2.221,0.612
		c1.574,0.296,3.09,0.438,4.689,0.31c0.849-0.069,1.674-0.215,2.479-0.431c1.812,1.146,3.985,1.692,6.112,1.868
		c1.192,0.09,2.294-0.029,3.439-0.339c0.568-0.155,1.143-0.235,1.705-0.423c0.601-0.198,1.169-0.458,1.733-0.733
		c0.907-0.433,1.89-0.988,2.635-1.686c0.295,0.278,0.607,0.536,0.934,0.778c1.767,1.325,3.92,2.063,6.129,2.102
		c2.3,0.038,4.569-0.493,6.662-1.427c1.508-0.669,2.821-1.705,3.952-2.896c1.865,1.379,4.106,2.251,6.402,2.687
		c1.79,0.336,3.514,0.496,5.333,0.352c0.466-0.038,0.926-0.097,1.381-0.173c0.146,0.051,0.285,0.114,0.435,0.152
		c1.204,0.311,2.567,0.169,3.734-0.239c0.743-0.258,1.483-0.572,2.144-1.003c0.348,0.461,0.76,0.885,1.241,1.265
		c1.491,1.186,3.421,1.718,5.302,1.874c0.91,0.067,1.752-0.023,2.626-0.26c0.435-0.12,0.873-0.18,1.302-0.323
		c0.459-0.151,0.893-0.35,1.324-0.56c0.692-0.331,1.442-0.755,2.012-1.287c0.225,0.213,0.463,0.409,0.713,0.594
		c1.348,1.011,2.993,1.576,4.679,1.605c1.756,0.029,3.489-0.376,5.087-1.09c1.151-0.511,2.154-1.302,3.018-2.211
		c1.424,1.053,3.136,1.719,4.889,2.051c1.367,0.257,2.683,0.38,4.071,0.269c1.341-0.108,2.617-0.417,3.84-0.97
		c0.91-0.413,1.848-1,2.647-1.721c0.3-0.154,0.595-0.316,0.876-0.5c0.457,0.604,0.995,1.16,1.626,1.657
		c1.953,1.553,4.48,2.25,6.944,2.454c1.192,0.09,2.294-0.029,3.439-0.339c0.568-0.155,1.143-0.235,1.705-0.423
		c0.601-0.198,1.169-0.458,1.733-0.733c0.907-0.433,1.89-0.988,2.635-1.686c0.295,0.278,0.606,0.536,0.934,0.778
		c1.766,1.325,3.92,2.063,6.128,2.102c2.3,0.038,4.569-0.493,6.662-1.427c1.508-0.669,2.822-1.705,3.953-2.896
		c1.865,1.379,4.106,2.251,6.402,2.687c1.789,0.336,3.513,0.496,5.332,0.352c1.756-0.142,3.428-0.545,5.03-1.27
		c2.679-1.216,5.602-3.535,6.024-6.585C196.704,91.002,194.585,88.3,191.604,87.589z"/>
	<g style="clip-path:url(#SVGID_00000008135657470140988860000016899206133051567802_);">
		<g>
			<path style="fill:#FFFFFF;" d="M45.663,92.723c-0.616-0.142-1.267-0.195-1.899-0.173c0.019-0.054,0.037-0.108,0.062-0.159
				c0.332-0.983,0.46-2.235,0.124-3.227c-0.346-1.013-0.862-2.007-1.563-2.822c-1.329-1.531-3.331-2.38-5.319-2.652
				c-1.05-0.135-2.087-0.062-3.129,0.108c-0.006-0.79-0.111-1.574-0.307-2.337c-0.514-2.022-2.132-3.786-3.825-4.962
				c-1.782-1.244-3.975-1.423-6.057-0.971c-0.219,0.046-0.434,0.105-0.651,0.173c-0.748-1.678-2.669-2.654-4.429-3.007
				c-1.167-0.238-2.453-0.154-3.592,0.168c-1.105,0.303-2.022,0.896-2.889,1.622c-0.846,0.704-1.51,1.692-2.008,2.658
				c-0.548,1.067-0.639,2.317-0.602,3.496c0.032,0.968,0.366,1.814,0.863,2.612c-0.248,0.128-0.479,0.282-0.695,0.469
				c-0.696,0.6-1.222,1.386-1.457,2.227c-0.272-0.118-0.548-0.219-0.838-0.302c-1.085-0.315-2.181-0.397-3.309-0.335
				c-1.084,0.064-2.141,0.471-3.108,0.955c-1.957,0.976-3.828,2.111-4.843,4.125c-0.255,0.515-0.437,1.105-0.536,1.718
				c-0.186-0.049-0.372-0.088-0.557-0.13c-1.414-0.278-2.84-0.165-4.183,0.363c-2.402,0.948-3.965,3.61-4.097,6.096
				c-0.161,2.877,1.956,5.407,4.687,6.117c1.39,0.358,2.959,0.193,4.303-0.275c0.857-0.298,1.713-0.661,2.471-1.156
				c0.397,0.531,0.871,1.017,1.425,1.46c1.725,1.366,3.945,1.974,6.111,2.153c1.047,0.082,2.017-0.027,3.026-0.296
				c0.497-0.139,1.004-0.207,1.497-0.372c0.525-0.176,1.028-0.403,1.525-0.647c0.794-0.378,1.66-0.87,2.319-1.481
				c0.259,0.243,0.531,0.473,0.817,0.686c1.554,1.165,3.445,1.815,5.393,1.846c2.021,0.038,4.015-0.431,5.858-1.252
				c1.326-0.587,2.476-1.499,3.472-2.546c1.64,1.212,3.615,1.979,5.633,2.36c1.572,0.298,3.092,0.439,4.689,0.312
				c1.54-0.125,3.014-0.477,4.425-1.119c2.351-1.067,4.924-3.11,5.299-5.793C50.145,95.725,48.287,93.353,45.663,92.723z"/>
			<path style="fill:#FFFFFF;" d="M48.513,99.759c-0.606,1.244-1.884,2.195-3.015,2.939c-2.62,1.73-5.917,2.076-8.97,1.655
				c-1.703-0.235-3.24-0.641-4.797-1.363c-0.535-0.249-1.038-0.537-1.52-0.857c0.13-0.151,0.261-0.306,0.386-0.463
				c-0.165,0.139-0.342,0.264-0.5,0.384c-0.643,0.453-1.294,0.908-1.96,1.322c-0.079,0.048-0.159,0.096-0.241,0.142
				c-0.48,0.332-0.985,0.642-1.52,0.9c-0.821,0.395-1.712,0.655-2.59,0.869c-0.934,0.236-1.891,0.426-2.856,0.467
				c-0.817,0.033-1.621-0.051-2.404-0.226c-1.122-0.163-2.235-0.482-3.209-1.062c-0.588-0.354-1.167-0.772-1.604-1.309
				c-0.287-0.36-0.509-0.849-0.886-1.144c0.093,0.21,0.199,0.417,0.317,0.625c0.204,0.357,0.458,0.681,0.739,0.984
				c-0.705,0.527-1.574,0.896-2.366,1.242c-1.783,0.789-3.763,1.27-5.719,1.119c-2.028-0.16-4.007-0.776-5.756-1.818
				c-0.576-0.347-1.076-0.756-1.509-1.218c0.004-0.002,0.004-0.002,0.006-0.006c-0.511-0.496-0.948-1.065-1.294-1.681
				c0.219,0.542,0.485,1.062,0.809,1.542c-0.698,0.346-1.459,0.604-2.161,0.823c-1.288,0.404-2.711,0.517-4.035,0.215
				c-2.555-0.582-4.257-2.808-4.413-5.36c-0.145-2.384,1.354-4.921,3.539-5.91c1.273-0.574,2.718-0.673,4.084-0.44
				c0.192,0.037,0.383,0.083,0.565,0.13c-0.036,0.268-0.058,0.534-0.061,0.804c0.023,0.282,0.031,0.568,0.104,0.849
				c0.103,0.375,0.235,0.745,0.396,1.102c-0.154-1.053-0.049-2.076,0.283-3.104c0.058-0.179,0.129-0.349,0.205-0.517
				c0.092-0.25,0.198-0.5,0.323-0.75c0.9-1.808,2.647-2.778,4.345-3.721c1.804-1.001,3.891-1.332,5.927-0.951
				c0.366,0.071,0.718,0.168,1.06,0.293c-0.157,0.837-0.026,1.71,0.499,2.504c-0.33-1.088-0.282-2.317,0.292-3.266
				c0.287-0.59,0.71-1.136,1.245-1.63c0.124-0.111,0.258-0.214,0.408-0.304c0.005,0.008,0.012,0.02,0.017,0.028
				c0.006,0,0.015-0.008,0.023-0.008c0.1-0.061,0.198-0.114,0.304-0.164c-0.004-0.013-0.009-0.022-0.015-0.029
				c0.591-0.282,1.29-0.432,1.874-0.548c0.46-0.094,0.914-0.154,1.386-0.117c0.105,0.011,0.205,0.028,0.311,0.045
				c0.028,0.006,0.06,0.006,0.091,0.006c-0.333-0.114-0.671-0.171-1.026-0.171c-0.516-0.005-1.022,0.045-1.527,0.114
				c-0.445,0.08-0.881,0.187-1.295,0.354c-0.428-0.792-0.648-1.644-0.692-2.553c-0.054-1.09,0.045-2.226,0.523-3.219
				c0.454-0.949,1.136-1.863,1.925-2.558c1.644-1.451,3.686-2.141,5.89-1.895c1.787,0.199,3.802,1.207,4.612,2.851
				c-0.563,0.182-1.105,0.426-1.616,0.716c-0.333,0.226-0.647,0.482-0.914,0.789c1.194-0.991,2.888-1.494,4.483-1.394
				c1.676-0.063,3.312,0.378,4.697,1.378c1.532,1.1,3.004,2.6,3.638,4.392c0.188,0.537,0.303,1.088,0.362,1.639
				c0.132,0.574,0.125,1.195,0.123,1.769c-0.004,0.151-0.01,0.302-0.015,0.451c0.077-0.476,0.122-0.953,0.125-1.436
				c0.043-0.005,0.088-0.011,0.131-0.014c0.977-0.111,1.939-0.093,2.904,0.077c1.846,0.318,3.694,1.227,4.936,2.629
				c0.614,0.693,0.996,1.523,1.352,2.363c0.415,0.983,0.366,2.116,0.086,3.136c-0.034,0.126-0.072,0.252-0.114,0.38
				c-0.011,0-0.02,0-0.028,0c-0.488,0.048-0.972,0.185-1.438,0.318c-0.208,0.057-0.379,0.114-0.499,0.275
				c0.016-0.003,0.026-0.006,0.038-0.008c0.018-0.004,0.028-0.009,0.052-0.018c0.365-0.267,0.951-0.279,1.371-0.299
				c0.309-0.011,0.615-0.04,0.923-0.014c0-0.004,0-0.004,0.003-0.005c0.603,0.019,1.215,0.144,1.791,0.326
				c1.4,0.435,2.57,1.449,3.157,2.775C49.145,97.153,49.091,98.573,48.513,99.759z"/>
			<path style="opacity:0.5;fill:#D8D8D8;" d="M18.347,79.954c-0.022,0.34,0.033,0.622,0.136,0.875
				c-0.025-1.073,0.647-2.334,1.337-3.067c0.299-0.311,0.625-0.584,0.975-0.82c0.202-0.186,0.42-0.358,0.647-0.514
				c0.511-0.29,1.054-0.534,1.616-0.716c-0.184-0.372-0.436-0.71-0.725-1.017C20.486,74.995,18.497,77.325,18.347,79.954z"/>
			<path style="opacity:0.5;fill:#D8D8D8;" d="M10.801,83.085c0.414-0.168,0.85-0.274,1.295-0.354
				c0.506-0.069,1.012-0.119,1.527-0.114c0.291,0,0.565,0.035,0.832,0.111c0.932,0.077,1.858,0.338,2.715,0.667
				c0.977,0.382,1.905,0.864,2.721,1.508c-1.759-2.639-5.514-4.177-8.474-2.904c-0.088,0.034-0.218,0.034-0.265-0.068
				c-0.602-1.349-0.797-2.94-0.587-4.464c-0.415,0.959-0.509,2.033-0.457,3.066C10.153,81.441,10.373,82.293,10.801,83.085z"/>
			<path style="opacity:0.5;fill:#D8D8D8;" d="M48.604,95.936c-0.587-1.326-1.757-2.34-3.157-2.775
				c-0.576-0.182-1.188-0.307-1.791-0.326c-0.003,0.001-0.003,0.001-0.003,0.005c-0.308-0.026-0.614,0.003-0.923,0.014
				c-0.42,0.02-1.006,0.032-1.371,0.299c-0.023,0.008-0.034,0.014-0.052,0.018c-0.012,0.002-0.022,0.005-0.038,0.008
				c0.12-0.161,0.291-0.218,0.499-0.275c0.467-0.134,0.95-0.27,1.438-0.318c0.009,0,0.018,0,0.028,0
				c0.042-0.128,0.08-0.253,0.114-0.38c0.28-1.02,0.329-2.152-0.086-3.136c-0.356-0.839-0.737-1.669-1.352-2.363
				c-1.042-1.182-2.519-2.01-4.061-2.429c1.695,1.061,3.081,2.483,3.144,4.67c0.04,1.528-0.284,3.431-1.14,4.902
				c0.31-0.054,0.62-0.096,0.935-0.134c1.334-0.153,2.748-0.361,4.04,0.112c1.02,0.382,1.414,1.362,1.108,2.375
				c-0.461,1.514-1.608,2.661-3.042,3.326c-2.842,1.315-6.214,1.159-9.146,0.21c-1.979-0.635-3.944-1.682-5.254-3.266
				c-1.41,2.882-4.101,4.969-7.621,5.04c-4.018,0.086-8.545-2.39-9.853-6.267c0.034,1.27,0.412,2.568,0.94,3.587
				c0.045,0.096,0.017,0.202-0.075,0.261c-2.87,1.806-8.779,3.72-12.224,2.295c-1.88-0.773-2.76-2.417-3.538-4.427
				c-0.16,1.401,0.17,2.94,0.706,4.427c0.047,0.134-0.437,0.206-0.547,0.221c-2.417,0.282-5.344,0.028-7.128-1.823
				c-0.942-0.976-1.363-2.158-1.437-3.392c-0.216,0.68-0.318,1.392-0.276,2.089c0.156,2.552,1.858,4.778,4.413,5.36
				c1.324,0.302,2.747,0.188,4.035-0.215c0.702-0.218,1.463-0.477,2.161-0.823c-0.323-0.48-0.59-1-0.809-1.542
				c0.346,0.616,0.783,1.185,1.294,1.681c-0.002,0.003-0.002,0.003-0.006,0.006c0.433,0.462,0.933,0.871,1.509,1.218
				c1.749,1.042,3.728,1.658,5.756,1.818c1.956,0.15,3.936-0.33,5.719-1.119c0.792-0.346,1.661-0.715,2.366-1.242
				c-0.281-0.303-0.535-0.627-0.739-0.984c-0.118-0.208-0.225-0.415-0.317-0.625c0.377,0.295,0.599,0.784,0.886,1.144
				c0.438,0.536,1.017,0.954,1.604,1.309c0.974,0.579,2.087,0.898,3.209,1.062c0.783,0.175,1.587,0.259,2.404,0.226
				c0.966-0.042,1.923-0.231,2.856-0.467c0.878-0.213,1.769-0.474,2.59-0.869c0.534-0.258,1.039-0.567,1.52-0.9
				c0.082-0.046,0.162-0.094,0.241-0.142c0.666-0.414,1.317-0.87,1.96-1.322c0.158-0.12,0.335-0.246,0.5-0.384
				c-0.125,0.157-0.256,0.312-0.386,0.463c0.482,0.321,0.985,0.608,1.52,0.857c1.557,0.722,3.094,1.127,4.797,1.363
				c3.053,0.421,6.35,0.075,8.97-1.655c1.131-0.745,2.408-1.695,3.015-2.939C49.091,98.573,49.145,97.153,48.604,95.936z"/>
			<path style="fill:#FFFFFF;" d="M10.659,83.574c-0.017,0.013-0.028,0.02-0.046,0.034c0.018-0.009,0.034-0.014,0.054-0.021
				C10.664,83.582,10.659,83.58,10.659,83.574z"/>
		</g>
		<g>
			<path style="fill:#FFFFFF;" d="M136.242,94.573c-0.535-0.123-1.099-0.17-1.648-0.15c0.017-0.047,0.032-0.094,0.054-0.138
				c0.288-0.853,0.399-1.94,0.108-2.801c-0.301-0.879-0.749-1.742-1.357-2.45c-1.154-1.33-2.893-2.066-4.619-2.303
				c-0.911-0.117-1.812-0.054-2.717,0.094c-0.005-0.686-0.096-1.366-0.266-2.029c-0.446-1.755-1.851-3.287-3.321-4.308
				c-1.547-1.08-3.451-1.235-5.259-0.843c-0.189,0.041-0.377,0.091-0.564,0.15c-0.649-1.457-2.317-2.304-3.846-2.611
				c-1.014-0.207-2.13-0.133-3.118,0.146c-0.96,0.263-1.757,0.777-2.509,1.408c-0.734,0.611-1.311,1.469-1.742,2.308
				c-0.477,0.926-0.555,2.012-0.522,3.035c0.027,0.841,0.317,1.575,0.749,2.268c-0.215,0.111-0.416,0.245-0.604,0.407
				c-0.604,0.521-1.061,1.204-1.265,1.933c-0.237-0.102-0.477-0.19-0.728-0.262c-0.942-0.273-1.894-0.344-2.873-0.291
				c-0.941,0.056-1.858,0.409-2.699,0.829c-1.698,0.848-3.323,1.833-4.204,3.582c-0.222,0.447-0.379,0.959-0.466,1.492
				c-0.16-0.042-0.323-0.076-0.482-0.113c-1.229-0.242-2.466-0.143-3.632,0.315c-2.086,0.823-3.442,3.134-3.557,5.293
				c-0.14,2.498,1.698,4.694,4.069,5.311c1.206,0.311,2.568,0.168,3.735-0.239c0.744-0.258,1.486-0.573,2.146-1.004
				c0.344,0.462,0.756,0.883,1.236,1.268c1.497,1.186,3.425,1.714,5.306,1.869c0.909,0.071,1.751-0.023,2.628-0.257
				c0.432-0.12,0.871-0.18,1.3-0.323c0.456-0.153,0.893-0.35,1.324-0.562c0.689-0.328,1.441-0.755,2.014-1.286
				c0.225,0.211,0.462,0.411,0.71,0.595c1.349,1.012,2.991,1.576,4.683,1.603c1.755,0.033,3.485-0.375,5.086-1.087
				c1.151-0.51,2.149-1.302,3.015-2.211c1.424,1.052,3.139,1.718,4.891,2.049c1.365,0.259,2.684,0.381,4.071,0.271
				c1.337-0.109,2.616-0.414,3.842-0.971c2.041-0.927,4.274-2.7,4.601-5.03C140.134,97.18,138.52,95.12,136.242,94.573z"/>
			<path style="fill:#FFFFFF;" d="M138.717,100.682c-0.526,1.08-1.636,1.905-2.617,2.552c-2.275,1.502-5.138,1.802-7.788,1.437
				c-1.479-0.204-2.813-0.557-4.164-1.183c-0.466-0.217-0.902-0.466-1.321-0.745c0.113-0.131,0.227-0.266,0.335-0.402
				c-0.143,0.12-0.296,0.229-0.434,0.334c-0.558,0.393-1.124,0.788-1.702,1.148c-0.068,0.042-0.138,0.084-0.209,0.124
				c-0.417,0.289-0.855,0.558-1.319,0.781c-0.713,0.343-1.486,0.569-2.249,0.754c-0.811,0.205-1.641,0.37-2.479,0.405
				c-0.71,0.029-1.407-0.044-2.088-0.196c-0.974-0.142-1.94-0.419-2.786-0.921c-0.51-0.308-1.013-0.67-1.393-1.136
				c-0.249-0.313-0.441-0.737-0.77-0.993c0.081,0.182,0.174,0.361,0.276,0.542c0.177,0.31,0.397,0.592,0.642,0.854
				c-0.612,0.457-1.366,0.778-2.055,1.079c-1.548,0.685-3.267,1.102-4.965,0.972c-1.761-0.139-3.479-0.674-4.997-1.579
				c-0.501-0.301-0.935-0.656-1.31-1.057c0.003-0.002,0.003-0.002,0.005-0.005c-0.444-0.431-0.824-0.924-1.124-1.459
				c0.189,0.471,0.421,0.922,0.702,1.339c-0.607,0.3-1.267,0.525-1.876,0.714c-1.119,0.351-2.354,0.449-3.504,0.187
				c-2.218-0.505-3.695-2.438-3.831-4.654c-0.126-2.069,1.176-4.273,3.072-5.131c1.104-0.499,2.359-0.584,3.546-0.382
				c0.167,0.032,0.332,0.072,0.491,0.113c-0.031,0.233-0.051,0.464-0.053,0.698c0.02,0.245,0.026,0.493,0.091,0.737
				c0.089,0.326,0.204,0.647,0.343,0.957c-0.134-0.915-0.042-1.802,0.246-2.695c0.05-0.155,0.112-0.303,0.178-0.449
				c0.08-0.217,0.173-0.434,0.281-0.651c0.781-1.57,2.298-2.412,3.772-3.23c1.565-0.869,3.377-1.156,5.146-0.826
				c0.317,0.062,0.623,0.146,0.92,0.255c-0.137,0.727-0.022,1.484,0.434,2.174c-0.287-0.945-0.245-2.012,0.253-2.835
				c0.249-0.513,0.617-0.986,1.081-1.415c0.107-0.096,0.224-0.186,0.354-0.264c0.005,0.007,0.01,0.018,0.015,0.024
				c0.005,0,0.013-0.007,0.02-0.007c0.087-0.053,0.173-0.099,0.264-0.143c-0.003-0.011-0.007-0.019-0.013-0.025
				c0.514-0.244,1.12-0.375,1.628-0.476c0.399-0.082,0.793-0.133,1.203-0.102c0.091,0.01,0.178,0.024,0.27,0.04
				c0.024,0.005,0.052,0.005,0.078,0.005c-0.289-0.099-0.582-0.148-0.891-0.148c-0.448-0.004-0.887,0.039-1.326,0.099
				c-0.387,0.069-0.765,0.162-1.124,0.308c-0.372-0.687-0.563-1.427-0.602-2.216c-0.047-0.946,0.039-1.932,0.454-2.795
				c0.394-0.824,0.985-1.618,1.671-2.222c1.428-1.26,3.2-1.858,5.113-1.645c1.552,0.173,3.301,1.048,4.005,2.476
				c-0.488,0.158-0.96,0.37-1.403,0.622c-0.289,0.196-0.563,0.418-0.794,0.685c1.037-0.86,2.508-1.297,3.893-1.21
				c1.455-0.055,2.875,0.328,4.078,1.196c1.331,0.955,2.608,2.257,3.158,3.813c0.164,0.466,0.264,0.945,0.315,1.423
				c0.114,0.498,0.108,1.038,0.107,1.536c-0.003,0.131-0.008,0.262-0.013,0.392c0.067-0.413,0.105-0.827,0.108-1.247
				c0.037-0.004,0.077-0.009,0.113-0.012c0.849-0.097,1.684-0.081,2.521,0.066c1.603,0.276,3.208,1.065,4.285,2.283
				c0.534,0.602,0.865,1.323,1.174,2.051c0.36,0.854,0.318,1.837,0.074,2.723c-0.029,0.11-0.061,0.219-0.099,0.33
				c-0.01,0-0.017,0-0.024,0c-0.424,0.042-0.844,0.16-1.249,0.276c-0.181,0.05-0.329,0.1-0.433,0.239
				c0.013-0.002,0.022-0.005,0.032-0.007c0.016-0.003,0.025-0.008,0.045-0.015c0.317-0.232,0.826-0.242,1.19-0.259
				c0.269-0.01,0.534-0.035,0.802-0.012c0-0.003,0-0.003,0.003-0.004c0.523,0.017,1.054,0.126,1.555,0.283
				c1.215,0.377,2.231,1.258,2.741,2.409C139.266,98.419,139.219,99.652,138.717,100.682z"/>
			<path style="opacity:0.5;fill:#D8D8D8;" d="M112.525,83.486c-0.018,0.295,0.029,0.54,0.118,0.759
				c-0.021-0.932,0.563-2.026,1.161-2.663c0.259-0.27,0.542-0.507,0.846-0.712c0.176-0.161,0.365-0.311,0.563-0.446
				c0.443-0.252,0.915-0.464,1.403-0.622c-0.16-0.323-0.378-0.616-0.629-0.883C114.384,79.181,112.656,81.204,112.525,83.486z"/>
			<path style="opacity:0.5;fill:#D8D8D8;" d="M105.975,86.205c0.359-0.145,0.737-0.238,1.124-0.308
				c0.439-0.06,0.878-0.104,1.326-0.099c0.253,0,0.491,0.031,0.723,0.097c0.809,0.067,1.613,0.293,2.356,0.579
				c0.849,0.331,1.655,0.75,2.362,1.31c-1.526-2.291-4.787-3.626-7.356-2.522c-0.076,0.029-0.189,0.029-0.229-0.059
				c-0.522-1.171-0.692-2.553-0.511-3.876c-0.359,0.833-0.441,1.766-0.396,2.663C105.412,84.778,105.603,85.518,105.975,86.205z"/>
			<path style="opacity:0.5;fill:#D8D8D8;" d="M138.797,97.362c-0.51-1.151-1.526-2.032-2.741-2.409
				c-0.501-0.158-1.032-0.267-1.555-0.283c-0.003,0.001-0.003,0.001-0.003,0.004c-0.268-0.023-0.533,0.002-0.802,0.012
				c-0.364,0.017-0.873,0.027-1.19,0.259c-0.02,0.007-0.029,0.012-0.045,0.015c-0.01,0.002-0.02,0.004-0.032,0.007
				c0.104-0.14,0.252-0.189,0.433-0.239c0.405-0.116,0.825-0.234,1.249-0.276c0.008,0,0.015,0,0.024,0
				c0.037-0.111,0.069-0.22,0.099-0.33c0.244-0.885,0.286-1.869-0.074-2.723c-0.309-0.729-0.64-1.449-1.174-2.051
				c-0.904-1.026-2.186-1.745-3.525-2.109c1.473,0.921,2.676,2.156,2.73,4.055c0.035,1.327-0.246,2.979-0.989,4.256
				c0.271-0.046,0.538-0.083,0.813-0.116c1.158-0.133,2.386-0.313,3.508,0.098c0.885,0.332,1.228,1.183,0.962,2.062
				c-0.4,1.314-1.396,2.311-2.642,2.887c-2.467,1.142-5.395,1.006-7.94,0.183c-1.718-0.552-3.425-1.46-4.562-2.836
				c-1.225,2.502-3.56,4.314-6.617,4.376c-3.487,0.075-7.419-2.075-8.555-5.441c0.029,1.102,0.357,2.229,0.816,3.114
				c0.039,0.083,0.015,0.175-0.065,0.227c-2.492,1.568-7.622,3.23-10.612,1.992c-1.633-0.671-2.397-2.098-3.072-3.844
				c-0.139,1.217,0.147,2.553,0.613,3.844c0.04,0.116-0.379,0.18-0.476,0.192c-2.098,0.245-4.639,0.024-6.188-1.583
				c-0.817-0.848-1.184-1.874-1.246-2.945c-0.188,0.59-0.276,1.208-0.24,1.813c0.136,2.216,1.613,4.148,3.831,4.654
				c1.149,0.262,2.385,0.164,3.504-0.187c0.609-0.19,1.269-0.414,1.876-0.714c-0.281-0.417-0.513-0.869-0.702-1.339
				c0.3,0.535,0.68,1.029,1.124,1.459c-0.002,0.003-0.002,0.003-0.005,0.005c0.375,0.401,0.809,0.756,1.31,1.057
				c1.519,0.905,3.236,1.439,4.997,1.579c1.698,0.13,3.417-0.287,4.965-0.972c0.688-0.301,1.442-0.621,2.055-1.079
				c-0.244-0.263-0.465-0.545-0.642-0.854c-0.103-0.181-0.195-0.36-0.276-0.542c0.328,0.256,0.521,0.68,0.77,0.993
				c0.38,0.466,0.883,0.829,1.393,1.136c0.846,0.503,1.813,0.78,2.786,0.921c0.681,0.152,1.378,0.226,2.088,0.196
				c0.839-0.036,1.669-0.2,2.479-0.405c0.763-0.186,1.536-0.411,2.249-0.754c0.464-0.224,0.902-0.493,1.319-0.781
				c0.071-0.04,0.141-0.082,0.209-0.124c0.578-0.359,1.145-0.755,1.702-1.148c0.138-0.104,0.291-0.213,0.434-0.334
				c-0.108,0.136-0.222,0.271-0.335,0.402c0.419,0.278,0.856,0.528,1.321,0.745c1.351,0.627,2.686,0.979,4.164,1.183
				c2.65,0.365,5.513,0.065,7.788-1.437c0.982-0.647,2.091-1.472,2.617-2.552C139.219,99.652,139.266,98.419,138.797,97.362z"/>
			<path style="fill:#FFFFFF;" d="M105.852,86.63c-0.015,0.011-0.024,0.018-0.04,0.03c0.016-0.008,0.029-0.012,0.047-0.019
				C105.856,86.637,105.852,86.634,105.852,86.63z"/>
		</g>
		<g>
			<path style="fill:#FFFFFF;" d="M92.899,89.593c-0.7-0.161-1.439-0.223-2.16-0.197c0.022-0.061,0.043-0.122,0.071-0.181
				c0.378-1.118,0.524-2.541,0.142-3.668c-0.394-1.152-0.98-2.284-1.777-3.209c-1.513-1.742-3.788-2.708-6.049-3.017
				c-1.194-0.154-2.374-0.07-3.559,0.123c-0.006-0.898-0.126-1.789-0.35-2.658c-0.583-2.298-2.424-4.304-4.349-5.642
				c-2.027-1.414-4.52-1.618-6.888-1.104c-0.249,0.053-0.494,0.12-0.74,0.197c-0.85-1.908-3.034-3.018-5.036-3.42
				c-1.327-0.271-2.789-0.174-4.085,0.191c-1.256,0.345-2.299,1.018-3.283,1.845c-0.963,0.8-1.718,1.924-2.283,3.022
				c-0.624,1.214-0.728,2.634-0.685,3.975c0.036,1.101,0.416,2.064,0.981,2.97c-0.281,0.146-0.546,0.32-0.791,0.533
				c-0.792,0.681-1.389,1.575-1.656,2.532c-0.311-0.133-0.623-0.25-0.952-0.343c-1.234-0.359-2.48-0.451-3.763-0.381
				c-1.232,0.072-2.435,0.536-3.535,1.086c-2.225,1.11-4.354,2.4-5.507,4.691c-0.29,0.583-0.496,1.256-0.608,1.954
				c-0.211-0.055-0.425-0.101-0.634-0.149c-1.608-0.315-3.229-0.188-4.756,0.413c-2.733,1.078-4.509,4.104-4.659,6.932
				c-0.183,3.272,2.225,6.149,5.33,6.957c1.579,0.406,3.364,0.219,4.893-0.315c0.975-0.338,1.947-0.751,2.81-1.313
				c0.451,0.604,0.99,1.156,1.62,1.66c1.96,1.553,4.485,2.244,6.949,2.448c1.19,0.092,2.292-0.03,3.442-0.336
				c0.565-0.159,1.141-0.236,1.702-0.424c0.598-0.2,1.169-0.457,1.734-0.736c0.903-0.43,1.889-0.988,2.638-1.685
				c0.294,0.277,0.603,0.538,0.93,0.78c1.767,1.325,3.917,2.064,6.132,2.099c2.3,0.042,4.565-0.49,6.662-1.423
				c1.508-0.668,2.815-1.705,3.948-2.897c1.864,1.379,4.11,2.251,6.404,2.684c1.788,0.339,3.516,0.5,5.333,0.355
				c1.752-0.142,3.427-0.542,5.031-1.273c2.674-1.214,5.6-3.536,6.025-6.587C97.995,93.006,95.884,90.31,92.899,89.593z"/>
			<path style="fill:#FFFFFF;" d="M96.14,97.594c-0.689,1.415-2.142,2.497-3.428,3.343c-2.979,1.967-6.729,2.36-10.199,1.883
				c-1.938-0.268-3.685-0.729-5.454-1.55c-0.609-0.284-1.182-0.611-1.73-0.976c0.148-0.171,0.297-0.348,0.438-0.526
				c-0.187,0.158-0.388,0.3-0.568,0.436c-0.729,0.516-1.472,1.033-2.228,1.504c-0.091,0.056-0.182,0.109-0.274,0.163
				c-0.546,0.377-1.12,0.729-1.727,1.022c-0.935,0.449-1.947,0.746-2.946,0.988c-1.062,0.268-2.149,0.484-3.247,0.53
				c-0.931,0.038-1.844-0.059-2.735-0.256c-1.274-0.187-2.541-0.55-3.648-1.207c-0.669-0.404-1.326-0.879-1.824-1.489
				c-0.326-0.41-0.578-0.965-1.008-1.301c0.106,0.238,0.227,0.474,0.361,0.71c0.232,0.407,0.521,0.774,0.84,1.12
				c-0.8,0.598-1.789,1.018-2.689,1.412c-2.028,0.897-4.279,1.443-6.504,1.272c-2.306-0.182-4.556-0.882-6.544-2.066
				c-0.656-0.395-1.225-0.859-1.716-1.385c0.004-0.003,0.004-0.003,0.007-0.007c-0.581-0.564-1.078-1.21-1.473-1.911
				c0.249,0.616,0.553,1.207,0.92,1.754c-0.794,0.393-1.658,0.688-2.456,0.936c-1.466,0.458-3.084,0.588-4.59,0.246
				c-2.904-0.662-4.839-3.193-5.017-6.096c-0.165-2.71,1.541-5.597,4.024-6.72c1.446-0.653,3.09-0.765,4.643-0.501
				c0.219,0.042,0.436,0.093,0.643,0.148c-0.04,0.304-0.064,0.607-0.068,0.914c0.025,0.32,0.036,0.646,0.119,0.965
				c0.116,0.427,0.268,0.846,0.448,1.253c-0.174-1.198-0.054-2.36,0.323-3.53c0.065-0.203,0.146-0.396,0.233-0.586
				c0.104-0.285,0.226-0.569,0.368-0.853c1.022-2.056,3.01-3.158,4.94-4.23c2.05-1.139,4.423-1.515,6.738-1.082
				c0.417,0.08,0.817,0.19,1.204,0.333c-0.178,0.952-0.028,1.944,0.569,2.848c-0.376-1.237-0.321-2.635,0.332-3.713
				c0.326-0.671,0.807-1.29,1.415-1.853c0.142-0.126,0.293-0.243,0.465-0.345c0.006,0.009,0.012,0.022,0.019,0.033
				c0.007,0,0.016-0.01,0.026-0.01c0.113-0.069,0.226-0.129,0.345-0.187c-0.004-0.014-0.01-0.023-0.016-0.033
				c0.671-0.319,1.465-0.49,2.131-0.622c0.523-0.107,1.04-0.175,1.575-0.133c0.12,0.013,0.233,0.032,0.354,0.052
				c0.031,0.006,0.067,0.006,0.104,0.006c-0.379-0.129-0.763-0.194-1.167-0.194c-0.588-0.006-1.162,0.052-1.737,0.13
				c-0.506,0.091-1.001,0.213-1.473,0.404c-0.487-0.901-0.735-1.87-0.787-2.903c-0.062-1.24,0.052-2.532,0.594-3.662
				c0.517-1.078,1.291-2.118,2.19-2.909c1.869-1.65,4.191-2.434,6.696-2.154c2.032,0.225,4.324,1.372,5.245,3.242
				c-0.64,0.207-1.256,0.484-1.837,0.814c-0.38,0.258-0.736,0.548-1.041,0.897c1.359-1.126,3.284-1.699,5.1-1.585
				c1.905-0.071,3.765,0.43,5.34,1.567c1.744,1.25,3.417,2.955,4.137,4.994c0.216,0.61,0.346,1.238,0.412,1.863
				c0.15,0.653,0.143,1.36,0.141,2.011c-0.004,0.172-0.011,0.343-0.016,0.514c0.087-0.542,0.138-1.084,0.142-1.635
				c0.048-0.006,0.1-0.012,0.148-0.016c1.111-0.126,2.205-0.106,3.304,0.087c2.099,0.361,4.201,1.395,5.612,2.99
				c0.697,0.788,1.133,1.731,1.537,2.687c0.471,1.117,0.416,2.406,0.097,3.565c-0.039,0.145-0.081,0.287-0.13,0.433
				c-0.013,0-0.023,0-0.031,0c-0.557,0.055-1.105,0.21-1.638,0.361c-0.235,0.065-0.43,0.13-0.566,0.313
				c0.017-0.002,0.029-0.006,0.042-0.009c0.021-0.004,0.032-0.01,0.059-0.02c0.417-0.303,1.082-0.316,1.56-0.339
				c0.352-0.012,0.7-0.045,1.05-0.016c0-0.004,0-0.004,0.004-0.007c0.685,0.022,1.38,0.164,2.036,0.372
				c1.592,0.493,2.923,1.646,3.591,3.155C96.858,94.63,96.797,96.246,96.14,97.594z"/>
			<path style="opacity:0.5;fill:#D8D8D8;" d="M61.837,75.072c-0.023,0.388,0.039,0.708,0.155,0.995
				c-0.028-1.22,0.736-2.653,1.521-3.487c0.339-0.354,0.71-0.665,1.108-0.933c0.229-0.21,0.478-0.407,0.736-0.584
				c0.581-0.33,1.197-0.607,1.837-0.814c-0.211-0.424-0.495-0.807-0.824-1.156C64.271,69.435,62.008,72.084,61.837,75.072z"/>
			<path style="opacity:0.5;fill:#D8D8D8;" d="M53.257,78.634c0.472-0.191,0.967-0.313,1.473-0.404
				c0.575-0.078,1.149-0.136,1.737-0.13c0.33,0,0.644,0.04,0.946,0.127c1.06,0.087,2.112,0.384,3.087,0.758
				c1.11,0.434,2.166,0.982,3.094,1.714c-2-3-6.271-4.75-9.636-3.302c-0.1,0.038-0.249,0.038-0.301-0.078
				c-0.685-1.535-0.907-3.342-0.668-5.077c-0.471,1.091-0.578,2.312-0.519,3.488C52.521,76.764,52.77,77.733,53.257,78.634z"/>
			<path style="opacity:0.5;fill:#D8D8D8;" d="M96.245,93.246c-0.668-1.509-1.999-2.662-3.591-3.155
				c-0.656-0.207-1.351-0.349-2.036-0.372c-0.004,0.002-0.004,0.002-0.004,0.007c-0.35-0.029-0.698,0.004-1.05,0.016
				c-0.478,0.022-1.143,0.036-1.56,0.339c-0.026,0.01-0.038,0.016-0.059,0.02c-0.013,0.003-0.025,0.007-0.042,0.009
				c0.136-0.183,0.33-0.248,0.566-0.313c0.532-0.152,1.081-0.306,1.638-0.361c0.009,0,0.019,0,0.031,0
				c0.049-0.145,0.091-0.288,0.13-0.433c0.319-1.159,0.374-2.448-0.097-3.565c-0.404-0.956-0.84-1.899-1.537-2.687
				c-1.186-1.344-2.863-2.286-4.618-2.764c1.929,1.207,3.504,2.824,3.575,5.311c0.044,1.737-0.323,3.901-1.296,5.574
				c0.354-0.06,0.705-0.109,1.063-0.151c1.517-0.175,3.125-0.411,4.594,0.128c1.16,0.434,1.608,1.549,1.261,2.7
				c-0.523,1.721-1.829,3.026-3.459,3.781c-3.232,1.495-7.065,1.317-10.401,0.239c-2.249-0.722-4.484-1.912-5.974-3.714
				c-1.604,3.278-4.663,5.651-8.666,5.733c-4.569,0.097-9.717-2.718-11.204-7.127c0.038,1.445,0.468,2.92,1.068,4.079
				c0.052,0.11,0.019,0.229-0.084,0.297c-3.265,2.054-9.984,4.23-13.901,2.609c-2.138-0.879-3.138-2.748-4.023-5.034
				c-0.181,1.593,0.194,3.343,0.804,5.034c0.053,0.151-0.497,0.236-0.623,0.251c-2.747,0.32-6.075,0.032-8.103-2.073
				c-1.072-1.11-1.55-2.454-1.634-3.856c-0.245,0.773-0.361,1.583-0.314,2.375c0.179,2.902,2.113,5.434,5.017,6.096
				c1.506,0.343,3.124,0.212,4.59-0.246c0.798-0.248,1.662-0.542,2.456-0.936c-0.367-0.546-0.671-1.138-0.92-1.754
				c0.395,0.701,0.892,1.347,1.473,1.911c-0.003,0.004-0.003,0.004-0.007,0.007c0.491,0.526,1.06,0.991,1.716,1.385
				c1.988,1.185,4.238,1.885,6.544,2.066c2.225,0.171,4.476-0.374,6.504-1.272c0.9-0.394,1.89-0.814,2.689-1.412
				c-0.318-0.345-0.607-0.713-0.84-1.12c-0.135-0.236-0.255-0.472-0.361-0.71c0.43,0.336,0.682,0.891,1.008,1.301
				c0.498,0.61,1.155,1.084,1.824,1.489c1.107,0.658,2.374,1.021,3.648,1.207c0.892,0.197,1.805,0.294,2.735,0.256
				c1.098-0.046,2.186-0.262,3.247-0.53c0.999-0.243,2.012-0.54,2.946-0.988c0.607-0.294,1.182-0.646,1.727-1.022
				c0.093-0.054,0.184-0.107,0.274-0.163c0.756-0.471,1.498-0.989,2.228-1.504c0.181-0.136,0.382-0.278,0.568-0.436
				c-0.142,0.178-0.29,0.355-0.438,0.526c0.549,0.365,1.121,0.692,1.73,0.976c1.77,0.82,3.517,1.282,5.454,1.55
				c3.471,0.478,7.22,0.085,10.199-1.883c1.286-0.846,2.739-1.928,3.428-3.343C96.797,96.246,96.858,94.63,96.245,93.246z"/>
			<path style="fill:#FFFFFF;" d="M53.097,79.19c-0.021,0.015-0.033,0.022-0.053,0.039c0.019-0.01,0.039-0.016,0.061-0.024
				C53.103,79.199,53.097,79.196,53.097,79.19z"/>
		</g>
		<g>
			<path style="fill:#FFFFFF;" d="M191.713,89.593c-0.701-0.161-1.439-0.223-2.16-0.197c0.022-0.061,0.042-0.122,0.071-0.181
				c0.378-1.118,0.523-2.541,0.142-3.668c-0.394-1.152-0.981-2.284-1.778-3.209c-1.512-1.742-3.787-2.708-6.049-3.017
				c-1.193-0.154-2.373-0.07-3.559,0.123c-0.006-0.898-0.126-1.789-0.349-2.658c-0.583-2.298-2.424-4.304-4.349-5.642
				c-2.028-1.414-4.521-1.618-6.888-1.104c-0.249,0.053-0.495,0.12-0.74,0.197c-0.852-1.908-3.035-3.018-5.036-3.42
				c-1.328-0.271-2.79-0.174-4.085,0.191c-1.256,0.345-2.3,1.018-3.284,1.845c-0.962,0.8-1.717,1.924-2.282,3.022
				c-0.624,1.214-0.727,2.634-0.685,3.975c0.036,1.101,0.416,2.064,0.981,2.97c-0.281,0.146-0.546,0.32-0.792,0.533
				c-0.791,0.681-1.388,1.575-1.656,2.532c-0.31-0.133-0.623-0.25-0.951-0.343c-1.234-0.359-2.481-0.451-3.764-0.381
				c-1.231,0.072-2.434,0.536-3.534,1.086c-2.225,1.11-4.354,2.4-5.507,4.691c-0.29,0.583-0.496,1.256-0.609,1.954
				c-0.211-0.055-0.424-0.101-0.633-0.149c-1.608-0.315-3.23-0.188-4.757,0.413c-2.732,1.078-4.508,4.104-4.659,6.932
				c-0.182,3.272,2.226,6.149,5.331,6.957c1.579,0.406,3.364,0.219,4.893-0.315c0.975-0.338,1.947-0.751,2.809-1.313
				c0.452,0.604,0.991,1.156,1.62,1.66c1.961,1.553,4.486,2.244,6.949,2.448c1.19,0.092,2.293-0.03,3.442-0.336
				c0.564-0.159,1.141-0.236,1.701-0.424c0.599-0.2,1.169-0.457,1.734-0.736c0.904-0.43,1.889-0.988,2.638-1.685
				c0.295,0.277,0.605,0.538,0.931,0.78c1.766,1.325,3.917,2.064,6.132,2.099c2.3,0.042,4.565-0.49,6.662-1.423
				c1.508-0.668,2.814-1.705,3.948-2.897c1.863,1.379,4.11,2.251,6.403,2.684c1.789,0.339,3.517,0.5,5.334,0.355
				c1.751-0.142,3.427-0.542,5.031-1.273c2.674-1.214,5.599-3.536,6.025-6.587C196.808,93.006,194.696,90.31,191.713,89.593z"/>
			<path style="fill:#FFFFFF;" d="M194.952,97.594c-0.688,1.415-2.141,2.497-3.427,3.343c-2.979,1.967-6.729,2.36-10.2,1.883
				c-1.937-0.268-3.684-0.729-5.454-1.55c-0.609-0.284-1.182-0.611-1.729-0.976c0.147-0.171,0.297-0.348,0.438-0.526
				c-0.188,0.158-0.388,0.3-0.568,0.436c-0.729,0.516-1.472,1.033-2.229,1.504c-0.09,0.056-0.181,0.109-0.273,0.163
				c-0.547,0.377-1.121,0.729-1.729,1.022c-0.934,0.449-1.947,0.746-2.945,0.988c-1.062,0.268-2.15,0.484-3.248,0.53
				c-0.93,0.038-1.843-0.059-2.734-0.256c-1.275-0.187-2.541-0.55-3.649-1.207c-0.668-0.404-1.325-0.879-1.823-1.489
				c-0.327-0.41-0.578-0.965-1.008-1.301c0.106,0.238,0.226,0.474,0.36,0.71c0.233,0.407,0.521,0.774,0.841,1.12
				c-0.801,0.598-1.789,1.018-2.689,1.412c-2.028,0.897-4.279,1.443-6.504,1.272c-2.306-0.182-4.556-0.882-6.545-2.066
				c-0.655-0.395-1.224-0.859-1.715-1.385c0.004-0.003,0.004-0.003,0.006-0.007c-0.58-0.564-1.077-1.21-1.472-1.911
				c0.249,0.616,0.553,1.207,0.92,1.754c-0.795,0.393-1.659,0.688-2.457,0.936c-1.465,0.458-3.083,0.588-4.589,0.246
				c-2.904-0.662-4.84-3.193-5.018-6.096c-0.165-2.71,1.54-5.597,4.024-6.72c1.446-0.653,3.09-0.765,4.643-0.501
				c0.219,0.042,0.437,0.093,0.644,0.148c-0.04,0.304-0.065,0.607-0.068,0.914c0.025,0.32,0.035,0.646,0.119,0.965
				c0.116,0.427,0.268,0.846,0.448,1.253c-0.174-1.198-0.055-2.36,0.323-3.53c0.065-0.203,0.146-0.396,0.232-0.586
				c0.105-0.285,0.227-0.569,0.368-0.853c1.023-2.056,3.011-3.158,4.941-4.23c2.05-1.139,4.423-1.515,6.738-1.082
				c0.417,0.08,0.816,0.19,1.204,0.333c-0.178,0.952-0.028,1.944,0.568,2.848c-0.375-1.237-0.32-2.635,0.333-3.713
				c0.326-0.671,0.807-1.29,1.414-1.853c0.142-0.126,0.293-0.243,0.466-0.345c0.006,0.009,0.012,0.022,0.019,0.033
				c0.006,0,0.016-0.01,0.025-0.01c0.114-0.069,0.226-0.129,0.346-0.187c-0.004-0.014-0.01-0.023-0.017-0.033
				c0.672-0.319,1.466-0.49,2.132-0.622c0.523-0.107,1.039-0.175,1.575-0.133c0.12,0.013,0.233,0.032,0.353,0.052
				c0.032,0.006,0.068,0.006,0.104,0.006c-0.379-0.129-0.763-0.194-1.167-0.194c-0.587-0.006-1.161,0.052-1.736,0.13
				c-0.507,0.091-1.001,0.213-1.473,0.404c-0.487-0.901-0.736-1.87-0.787-2.903c-0.061-1.24,0.051-2.532,0.594-3.662
				c0.517-1.078,1.291-2.118,2.189-2.909c1.869-1.65,4.191-2.434,6.696-2.154c2.032,0.225,4.323,1.372,5.245,3.242
				c-0.64,0.207-1.256,0.484-1.837,0.814c-0.38,0.258-0.736,0.548-1.041,0.897c1.359-1.126,3.284-1.699,5.1-1.585
				c1.904-0.071,3.765,0.43,5.34,1.567c1.743,1.25,3.416,2.955,4.137,4.994c0.216,0.61,0.346,1.238,0.412,1.863
				c0.149,0.653,0.143,1.36,0.14,2.011c-0.004,0.172-0.01,0.343-0.015,0.514c0.086-0.542,0.137-1.084,0.141-1.635
				c0.049-0.006,0.101-0.012,0.148-0.016c1.111-0.126,2.205-0.106,3.303,0.087c2.099,0.361,4.202,1.395,5.613,2.99
				c0.697,0.788,1.133,1.731,1.536,2.687c0.472,1.117,0.416,2.406,0.098,3.565c-0.039,0.145-0.081,0.287-0.13,0.433
				c-0.013,0-0.022,0-0.032,0c-0.556,0.055-1.105,0.21-1.637,0.361c-0.236,0.065-0.431,0.13-0.566,0.313
				c0.017-0.002,0.03-0.006,0.043-0.009c0.02-0.004,0.032-0.01,0.059-0.02c0.416-0.303,1.082-0.316,1.56-0.339
				c0.352-0.012,0.7-0.045,1.049-0.016c0-0.004,0-0.004,0.004-0.007c0.685,0.022,1.381,0.164,2.036,0.372
				c1.593,0.493,2.924,1.646,3.592,3.155C195.671,94.63,195.61,96.246,194.952,97.594z"/>
			<path style="opacity:0.5;fill:#D8D8D8;" d="M160.65,75.072c-0.023,0.388,0.039,0.708,0.154,0.995
				c-0.028-1.22,0.737-2.653,1.52-3.487c0.34-0.354,0.711-0.665,1.109-0.933c0.229-0.21,0.477-0.407,0.736-0.584
				c0.581-0.33,1.197-0.607,1.837-0.814c-0.211-0.424-0.495-0.807-0.824-1.156C163.084,69.435,160.821,72.084,160.65,75.072z"/>
			<path style="opacity:0.5;fill:#D8D8D8;" d="M152.07,78.634c0.472-0.191,0.966-0.313,1.473-0.404
				c0.575-0.078,1.149-0.136,1.736-0.13c0.33,0,0.644,0.04,0.947,0.127c1.059,0.087,2.112,0.384,3.087,0.758
				c1.11,0.434,2.166,0.982,3.094,1.714c-2-3-6.271-4.75-9.636-3.302c-0.1,0.038-0.249,0.038-0.301-0.078
				c-0.685-1.535-0.907-3.342-0.668-5.077c-0.472,1.091-0.578,2.312-0.52,3.488C151.334,76.764,151.583,77.733,152.07,78.634z"/>
			<path style="opacity:0.5;fill:#D8D8D8;" d="M195.059,93.246c-0.668-1.509-1.999-2.662-3.592-3.155
				c-0.655-0.207-1.352-0.349-2.036-0.372c-0.004,0.002-0.004,0.002-0.004,0.007c-0.349-0.029-0.697,0.004-1.049,0.016
				c-0.478,0.022-1.144,0.036-1.56,0.339c-0.026,0.01-0.039,0.016-0.059,0.02c-0.013,0.003-0.026,0.007-0.043,0.009
				c0.136-0.183,0.33-0.248,0.566-0.313c0.532-0.152,1.081-0.306,1.637-0.361c0.01,0,0.02,0,0.032,0
				c0.049-0.145,0.091-0.288,0.13-0.433c0.318-1.159,0.374-2.448-0.098-3.565c-0.403-0.956-0.839-1.899-1.536-2.687
				c-1.186-1.344-2.864-2.286-4.618-2.764c1.929,1.207,3.504,2.824,3.575,5.311c0.044,1.737-0.324,3.901-1.296,5.574
				c0.353-0.06,0.704-0.109,1.063-0.151c1.518-0.175,3.125-0.411,4.595,0.128c1.16,0.434,1.608,1.549,1.26,2.7
				c-0.523,1.721-1.828,3.026-3.458,3.781c-3.232,1.495-7.066,1.317-10.401,0.239c-2.249-0.722-4.484-1.912-5.974-3.714
				c-1.605,3.278-4.663,5.651-8.666,5.733c-4.569,0.097-9.717-2.718-11.205-7.127c0.038,1.445,0.469,2.92,1.069,4.079
				c0.051,0.11,0.019,0.229-0.085,0.297c-3.265,2.054-9.983,4.23-13.9,2.609c-2.138-0.879-3.139-2.748-4.023-5.034
				c-0.181,1.593,0.194,3.343,0.804,5.034c0.053,0.151-0.497,0.236-0.623,0.251c-2.747,0.32-6.076,0.032-8.103-2.073
				c-1.072-1.11-1.551-2.454-1.635-3.856c-0.245,0.773-0.361,1.583-0.313,2.375c0.178,2.902,2.113,5.434,5.018,6.096
				c1.506,0.343,3.124,0.212,4.589-0.246c0.798-0.248,1.662-0.542,2.457-0.936c-0.367-0.546-0.671-1.138-0.92-1.754
				c0.395,0.701,0.892,1.347,1.472,1.911c-0.002,0.004-0.002,0.004-0.006,0.007c0.491,0.526,1.06,0.991,1.715,1.385
				c1.989,1.185,4.239,1.885,6.545,2.066c2.225,0.171,4.476-0.374,6.504-1.272c0.9-0.394,1.889-0.814,2.689-1.412
				c-0.319-0.345-0.607-0.713-0.841-1.12c-0.135-0.236-0.254-0.472-0.36-0.71c0.43,0.336,0.681,0.891,1.008,1.301
				c0.498,0.61,1.155,1.084,1.823,1.489c1.108,0.658,2.374,1.021,3.649,1.207c0.892,0.197,1.805,0.294,2.734,0.256
				c1.098-0.046,2.187-0.262,3.248-0.53c0.998-0.243,2.012-0.54,2.945-0.988c0.607-0.294,1.182-0.646,1.729-1.022
				c0.093-0.054,0.184-0.107,0.273-0.163c0.757-0.471,1.499-0.989,2.229-1.504c0.181-0.136,0.381-0.278,0.568-0.436
				c-0.142,0.178-0.291,0.355-0.438,0.526c0.548,0.365,1.12,0.692,1.729,0.976c1.77,0.82,3.517,1.282,5.454,1.55
				c3.471,0.478,7.221,0.085,10.2-1.883c1.286-0.846,2.738-1.928,3.427-3.343C195.61,96.246,195.671,94.63,195.059,93.246z"/>
			<path style="fill:#FFFFFF;" d="M151.91,79.19c-0.02,0.015-0.033,0.022-0.053,0.039c0.02-0.01,0.039-0.016,0.061-0.024
				C151.916,79.199,151.91,79.196,151.91,79.19z"/>
		</g>
	</g>
	<g style="clip-path:url(#SVGID_00000008135657470140988860000016899206133051567802_);">
		<path style="opacity:0.5;fill:#F7AEBB;" d="M31.947,37.753c-0.28-0.064-0.574-0.088-0.861-0.079
			c0.01-0.024,0.017-0.049,0.029-0.071c0.149-0.445,0.208-1.013,0.057-1.461c-0.157-0.458-0.392-0.909-0.709-1.278
			c-0.602-0.693-1.509-1.078-2.409-1.201c-0.476-0.061-0.946-0.028-1.418,0.049c-0.002-0.358-0.05-0.713-0.139-1.059
			c-0.232-0.916-0.965-1.715-1.731-2.247c-0.808-0.564-1.801-0.645-2.744-0.44c-0.099,0.021-0.196,0.047-0.295,0.078
			c-0.339-0.76-1.209-1.203-2.006-1.362c-0.528-0.108-1.112-0.069-1.627,0.076c-0.5,0.138-0.916,0.406-1.308,0.735
			c-0.384,0.318-0.685,0.766-0.909,1.203c-0.249,0.484-0.291,1.05-0.273,1.583c0.014,0.439,0.165,0.822,0.39,1.184
			c-0.112,0.058-0.217,0.127-0.314,0.213c-0.315,0.271-0.554,0.628-0.66,1.008c-0.123-0.053-0.248-0.099-0.38-0.137
			c-0.491-0.142-0.987-0.18-1.498-0.151c-0.491,0.029-0.97,0.213-1.408,0.433C10.848,35.27,10,35.784,9.54,36.696
			c-0.115,0.233-0.197,0.501-0.242,0.778c-0.084-0.022-0.169-0.04-0.252-0.059C8.404,37.29,7.759,37.341,7.15,37.58
			c-1.088,0.43-1.796,1.635-1.855,2.761c-0.072,1.303,0.887,2.449,2.123,2.771c0.63,0.162,1.341,0.087,1.949-0.125
			c0.389-0.135,0.775-0.299,1.118-0.523c0.181,0.24,0.396,0.46,0.646,0.661c0.78,0.619,1.786,0.895,2.767,0.975
			c0.475,0.037,0.913-0.012,1.371-0.134c0.225-0.063,0.454-0.094,0.678-0.169c0.237-0.08,0.466-0.183,0.69-0.293
			c0.359-0.17,0.752-0.394,1.052-0.67c0.116,0.11,0.24,0.214,0.369,0.311c0.704,0.528,1.56,0.822,2.443,0.835
			c0.916,0.018,1.818-0.195,2.653-0.566c0.6-0.267,1.12-0.68,1.572-1.153c0.743,0.549,1.638,0.896,2.552,1.069
			c0.712,0.134,1.399,0.198,2.124,0.141c0.696-0.057,1.364-0.216,2.004-0.507c1.065-0.483,2.23-1.408,2.399-2.624
			C33.977,39.113,33.135,38.039,31.947,37.753z"/>
		<g>
			<path style="fill:#FFFFFF;" d="M31.136,36.787c-0.28-0.065-0.574-0.088-0.861-0.079c0.01-0.024,0.017-0.049,0.029-0.071
				c0.149-0.445,0.208-1.013,0.057-1.461c-0.157-0.458-0.392-0.909-0.709-1.278c-0.602-0.693-1.509-1.078-2.409-1.201
				c-0.476-0.061-0.946-0.028-1.418,0.049c-0.002-0.358-0.05-0.713-0.139-1.059c-0.232-0.916-0.965-1.715-1.732-2.247
				c-0.808-0.564-1.801-0.644-2.744-0.44c-0.099,0.021-0.196,0.047-0.295,0.078c-0.339-0.76-1.209-1.203-2.006-1.362
				c-0.528-0.108-1.112-0.069-1.627,0.076c-0.5,0.138-0.916,0.406-1.308,0.735c-0.384,0.318-0.684,0.766-0.909,1.203
				c-0.249,0.484-0.291,1.05-0.273,1.583c0.014,0.439,0.165,0.822,0.39,1.184c-0.112,0.058-0.217,0.127-0.314,0.213
				c-0.315,0.271-0.554,0.628-0.66,1.008c-0.123-0.053-0.248-0.099-0.38-0.137c-0.491-0.143-0.987-0.18-1.498-0.151
				c-0.491,0.029-0.97,0.213-1.408,0.433c-0.886,0.442-1.733,0.956-2.193,1.868c-0.115,0.233-0.197,0.501-0.242,0.778
				c-0.084-0.022-0.169-0.04-0.252-0.059c-0.642-0.125-1.287-0.074-1.895,0.165c-1.088,0.43-1.796,1.635-1.855,2.761
				c-0.072,1.303,0.887,2.449,2.123,2.771c0.63,0.162,1.341,0.087,1.949-0.125c0.389-0.135,0.775-0.299,1.118-0.523
				c0.181,0.24,0.395,0.46,0.646,0.661c0.78,0.619,1.786,0.895,2.768,0.975c0.475,0.037,0.913-0.012,1.371-0.134
				c0.225-0.063,0.454-0.094,0.678-0.169c0.237-0.08,0.466-0.183,0.69-0.293c0.359-0.17,0.752-0.394,1.052-0.67
				c0.116,0.11,0.24,0.214,0.369,0.311c0.704,0.528,1.56,0.822,2.443,0.835c0.916,0.018,1.818-0.195,2.653-0.566
				c0.6-0.267,1.12-0.68,1.572-1.153c0.743,0.549,1.638,0.896,2.552,1.069c0.712,0.134,1.399,0.198,2.124,0.141
				c0.696-0.057,1.364-0.216,2.004-0.507c1.064-0.483,2.229-1.408,2.399-2.624C33.165,38.146,32.323,37.072,31.136,36.787z"/>
			<path style="fill:#FFFFFF;" d="M32.426,39.974c-0.274,0.563-0.853,0.994-1.365,1.331c-1.188,0.784-2.681,0.941-4.064,0.75
				c-0.77-0.107-1.467-0.291-2.172-0.617c-0.243-0.114-0.47-0.244-0.689-0.389c0.059-0.068,0.118-0.139,0.175-0.209
				c-0.074,0.062-0.153,0.119-0.227,0.174c-0.291,0.205-0.586,0.411-0.887,0.598c-0.037,0.022-0.072,0.044-0.109,0.064
				c-0.218,0.15-0.446,0.291-0.688,0.408c-0.372,0.179-0.775,0.296-1.173,0.393c-0.423,0.107-0.857,0.193-1.294,0.212
				c-0.37,0.016-0.734-0.023-1.089-0.102c-0.508-0.074-1.013-0.218-1.454-0.481c-0.267-0.16-0.528-0.35-0.727-0.592
				c-0.13-0.163-0.229-0.384-0.401-0.518c0.043,0.095,0.091,0.188,0.145,0.283c0.092,0.162,0.207,0.309,0.334,0.446
				c-0.318,0.239-0.712,0.405-1.07,0.563c-0.808,0.357-1.705,0.575-2.591,0.507c-0.919-0.073-1.815-0.351-2.606-0.824
				c-0.262-0.157-0.488-0.342-0.684-0.551c0.001-0.001,0.001-0.001,0.002-0.002c-0.231-0.225-0.43-0.482-0.586-0.762
				c0.099,0.246,0.22,0.481,0.366,0.699c-0.316,0.156-0.661,0.273-0.979,0.372c-0.584,0.183-1.228,0.235-1.828,0.098
				c-1.157-0.264-1.928-1.272-1.998-2.428C4.7,38.316,5.38,37.167,6.369,36.718c0.576-0.26,1.23-0.305,1.85-0.199
				c0.087,0.017,0.173,0.037,0.256,0.059C8.459,36.7,8.449,36.82,8.447,36.941c0.01,0.128,0.014,0.258,0.047,0.385
				c0.047,0.17,0.107,0.337,0.18,0.499c-0.07-0.477-0.023-0.94,0.128-1.406c0.026-0.082,0.059-0.158,0.093-0.234
				c0.042-0.113,0.09-0.226,0.147-0.339c0.407-0.819,1.198-1.258,1.967-1.686c0.817-0.453,1.763-0.603,2.686-0.43
				c0.165,0.032,0.324,0.076,0.479,0.133c-0.071,0.379-0.012,0.775,0.227,1.134c-0.15-0.493-0.129-1.05,0.132-1.479
				c0.13-0.268,0.321-0.515,0.563-0.739c0.057-0.05,0.117-0.097,0.186-0.138c0.002,0.004,0.005,0.01,0.008,0.013
				c0.002,0,0.006-0.003,0.01-0.003c0.045-0.027,0.09-0.052,0.137-0.074c-0.001-0.006-0.003-0.01-0.006-0.014
				c0.268-0.127,0.585-0.196,0.85-0.248c0.207-0.042,0.414-0.069,0.627-0.053c0.048,0.005,0.093,0.012,0.141,0.021
				c0.013,0.002,0.026,0.002,0.041,0.002c-0.15-0.052-0.304-0.078-0.465-0.078c-0.233-0.003-0.463,0.021-0.691,0.052
				c-0.202,0.036-0.399,0.084-0.586,0.161c-0.194-0.359-0.294-0.745-0.314-1.157c-0.024-0.493,0.021-1.007,0.236-1.458
				c0.206-0.43,0.515-0.844,0.873-1.159c0.744-0.657,1.669-0.969,2.667-0.857c0.81,0.089,1.722,0.546,2.089,1.291
				c-0.255,0.083-0.501,0.193-0.731,0.324c-0.151,0.103-0.294,0.218-0.415,0.357c0.541-0.448,1.309-0.676,2.03-0.631
				c0.76-0.028,1.5,0.171,2.128,0.625c0.695,0.498,1.361,1.177,1.648,1.988c0.086,0.244,0.138,0.494,0.165,0.743
				c0.06,0.26,0.057,0.542,0.056,0.801c-0.002,0.069-0.004,0.137-0.007,0.205c0.035-0.216,0.055-0.432,0.057-0.65
				c0.02-0.002,0.039-0.005,0.059-0.007c0.442-0.051,0.879-0.042,1.315,0.035c0.837,0.143,1.674,0.556,2.236,1.191
				c0.277,0.314,0.451,0.689,0.612,1.07c0.187,0.445,0.165,0.958,0.039,1.42c-0.017,0.058-0.033,0.115-0.052,0.172
				c-0.006,0-0.01,0-0.013,0c-0.222,0.021-0.441,0.084-0.652,0.144c-0.095,0.026-0.172,0.053-0.226,0.125
				c0.007-0.001,0.012-0.002,0.017-0.003c0.008-0.002,0.013-0.004,0.024-0.008c0.165-0.121,0.431-0.126,0.62-0.135
				c0.14-0.005,0.279-0.019,0.418-0.006c0-0.002,0-0.002,0.002-0.002c0.273,0.009,0.549,0.065,0.811,0.148
				c0.634,0.197,1.165,0.656,1.431,1.257C32.712,38.793,32.688,39.436,32.426,39.974z"/>
			<path style="opacity:0.5;fill:#D8D8D8;" d="M18.763,31.003c-0.01,0.154,0.015,0.281,0.061,0.396
				c-0.012-0.486,0.293-1.057,0.607-1.389c0.135-0.141,0.282-0.265,0.44-0.372c0.091-0.084,0.191-0.162,0.294-0.233
				c0.23-0.131,0.476-0.242,0.731-0.324c-0.084-0.168-0.197-0.321-0.328-0.461C19.732,28.756,18.831,29.812,18.763,31.003z"/>
			<path style="opacity:0.5;fill:#D8D8D8;" d="M15.346,32.421c0.187-0.077,0.384-0.125,0.586-0.161
				c0.228-0.031,0.458-0.054,0.691-0.052c0.132,0,0.256,0.016,0.377,0.051c0.422,0.035,0.842,0.153,1.229,0.302
				c0.443,0.173,0.863,0.392,1.232,0.683c-0.797-1.195-2.497-1.892-3.838-1.315c-0.04,0.016-0.099,0.016-0.12-0.03
				c-0.272-0.611-0.36-1.333-0.266-2.023c-0.188,0.435-0.231,0.92-0.207,1.389C15.052,31.677,15.151,32.063,15.346,32.421z"/>
			<path style="opacity:0.5;fill:#D8D8D8;" d="M32.468,38.242c-0.266-0.601-0.797-1.06-1.431-1.257
				c-0.262-0.083-0.538-0.139-0.811-0.148c-0.002,0.001-0.002,0.001-0.002,0.002c-0.139-0.012-0.278,0.001-0.418,0.006
				c-0.19,0.009-0.455,0.014-0.62,0.135c-0.012,0.004-0.017,0.006-0.024,0.008c-0.005,0-0.01,0.001-0.017,0.003
				c0.054-0.072,0.131-0.099,0.226-0.125c0.212-0.06,0.431-0.122,0.652-0.144c0.003,0,0.007,0,0.013,0
				c0.019-0.057,0.035-0.114,0.052-0.172c0.126-0.462,0.147-0.975-0.039-1.42c-0.161-0.381-0.335-0.756-0.612-1.07
				c-0.473-0.535-1.142-0.91-1.84-1.101c0.769,0.48,1.396,1.125,1.424,2.115c0.019,0.692-0.128,1.554-0.516,2.221
				c0.141-0.024,0.28-0.044,0.424-0.061c0.604-0.068,1.244-0.163,1.829,0.052c0.462,0.172,0.641,0.616,0.503,1.075
				c-0.209,0.686-0.729,1.205-1.378,1.506c-1.287,0.596-2.814,0.525-4.142,0.095c-0.896-0.288-1.786-0.762-2.38-1.479
				c-0.639,1.305-1.857,2.25-3.452,2.283c-1.819,0.039-3.87-1.083-4.463-2.838c0.016,0.575,0.188,1.163,0.426,1.625
				c0.02,0.043,0.008,0.092-0.034,0.118c-1.3,0.818-3.976,1.686-5.536,1.039c-0.852-0.35-1.25-1.095-1.602-2.005
				c-0.071,0.635,0.076,1.332,0.32,2.005c0.02,0.061-0.198,0.094-0.249,0.101c-1.094,0.127-2.419,0.012-3.228-0.826
				c-0.427-0.441-0.617-0.978-0.65-1.536c-0.099,0.308-0.144,0.631-0.125,0.946c0.07,1.156,0.841,2.164,1.998,2.428
				c0.6,0.137,1.244,0.085,1.828-0.098c0.317-0.099,0.662-0.216,0.979-0.372c-0.147-0.218-0.268-0.453-0.366-0.699
				c0.156,0.279,0.354,0.537,0.586,0.762c-0.001,0.001-0.001,0.001-0.002,0.002c0.195,0.209,0.422,0.394,0.684,0.551
				c0.791,0.473,1.687,0.751,2.606,0.824c0.886,0.067,1.783-0.15,2.591-0.507c0.358-0.157,0.752-0.324,1.07-0.563
				c-0.127-0.137-0.242-0.284-0.334-0.446c-0.054-0.094-0.102-0.188-0.145-0.283c0.172,0.134,0.271,0.354,0.401,0.518
				c0.198,0.243,0.46,0.432,0.727,0.592c0.441,0.263,0.946,0.407,1.454,0.481c0.354,0.079,0.719,0.118,1.089,0.102
				c0.438-0.019,0.871-0.104,1.294-0.212c0.397-0.097,0.801-0.214,1.173-0.393c0.242-0.117,0.471-0.257,0.688-0.408
				c0.037-0.021,0.072-0.042,0.109-0.064c0.301-0.188,0.596-0.394,0.887-0.598c0.073-0.055,0.152-0.112,0.227-0.174
				c-0.057,0.071-0.115,0.141-0.175,0.209c0.22,0.145,0.446,0.275,0.689,0.389c0.705,0.327,1.401,0.51,2.172,0.617
				c1.383,0.191,2.876,0.034,4.064-0.75c0.512-0.337,1.091-0.767,1.365-1.331C32.688,39.436,32.712,38.793,32.468,38.242z"/>
			<path style="fill:#FFFFFF;" d="M15.281,32.642c-0.009,0.007-0.014,0.01-0.021,0.016c0.008-0.005,0.016-0.006,0.024-0.009
				C15.283,32.646,15.281,32.645,15.281,32.642z"/>
		</g>
	</g>
	<g style="clip-path:url(#SVGID_00000008135657470140988860000016899206133051567802_);">
		<path style="opacity:0.5;fill:#F7AEBB;" d="M171.28,47.984c-0.28-0.064-0.574-0.088-0.861-0.079
			c0.01-0.024,0.017-0.049,0.029-0.071c0.149-0.445,0.208-1.013,0.057-1.462c-0.157-0.458-0.392-0.909-0.709-1.278
			c-0.602-0.693-1.509-1.078-2.409-1.201c-0.476-0.061-0.946-0.028-1.418,0.049c-0.002-0.358-0.05-0.713-0.139-1.059
			c-0.232-0.916-0.965-1.715-1.731-2.247c-0.808-0.564-1.801-0.645-2.744-0.44c-0.099,0.021-0.196,0.047-0.295,0.078
			c-0.339-0.76-1.209-1.203-2.006-1.362c-0.528-0.108-1.112-0.069-1.627,0.076c-0.5,0.138-0.916,0.406-1.308,0.735
			c-0.384,0.318-0.685,0.766-0.909,1.203c-0.249,0.484-0.291,1.05-0.272,1.583c0.014,0.439,0.165,0.822,0.39,1.184
			c-0.112,0.058-0.217,0.128-0.314,0.213c-0.315,0.271-0.554,0.628-0.66,1.008c-0.123-0.053-0.248-0.099-0.38-0.137
			c-0.491-0.143-0.987-0.18-1.498-0.151c-0.491,0.029-0.97,0.213-1.408,0.433c-0.886,0.442-1.733,0.956-2.193,1.868
			c-0.115,0.233-0.197,0.501-0.242,0.778c-0.084-0.022-0.169-0.04-0.252-0.059c-0.642-0.126-1.287-0.074-1.895,0.164
			c-1.088,0.43-1.796,1.635-1.855,2.761c-0.072,1.303,0.887,2.449,2.123,2.771c0.63,0.162,1.341,0.087,1.949-0.125
			c0.389-0.135,0.775-0.299,1.118-0.523c0.181,0.24,0.395,0.46,0.646,0.661c0.78,0.619,1.786,0.894,2.768,0.975
			c0.475,0.037,0.913-0.012,1.371-0.134c0.225-0.063,0.454-0.094,0.678-0.168c0.237-0.08,0.466-0.183,0.69-0.294
			c0.359-0.17,0.752-0.394,1.052-0.67c0.116,0.11,0.24,0.214,0.369,0.311c0.704,0.528,1.561,0.822,2.443,0.835
			c0.916,0.018,1.818-0.195,2.653-0.566c0.6-0.267,1.12-0.68,1.572-1.153c0.743,0.549,1.638,0.896,2.552,1.069
			c0.712,0.134,1.399,0.198,2.124,0.141c0.696-0.057,1.364-0.216,2.004-0.507c1.065-0.483,2.23-1.408,2.4-2.623
			C173.31,49.344,172.468,48.27,171.28,47.984z"/>
		<g>
			<path style="fill:#FFFFFF;" d="M170.469,47.017c-0.28-0.065-0.574-0.088-0.861-0.079c0.01-0.024,0.017-0.049,0.029-0.071
				c0.149-0.445,0.208-1.013,0.057-1.461c-0.157-0.458-0.392-0.909-0.709-1.278c-0.602-0.693-1.509-1.078-2.409-1.201
				c-0.476-0.061-0.946-0.028-1.418,0.049c-0.002-0.358-0.05-0.713-0.139-1.059c-0.232-0.916-0.965-1.715-1.732-2.247
				c-0.808-0.564-1.801-0.644-2.744-0.44c-0.099,0.021-0.196,0.047-0.295,0.078c-0.339-0.76-1.209-1.203-2.006-1.362
				c-0.528-0.108-1.112-0.069-1.627,0.076c-0.5,0.138-0.916,0.406-1.308,0.735c-0.384,0.318-0.685,0.766-0.909,1.203
				c-0.249,0.484-0.291,1.05-0.273,1.583c0.014,0.439,0.165,0.822,0.39,1.184c-0.112,0.058-0.217,0.128-0.315,0.213
				c-0.315,0.271-0.554,0.628-0.66,1.008c-0.123-0.053-0.248-0.099-0.38-0.137c-0.491-0.143-0.987-0.18-1.498-0.151
				c-0.491,0.029-0.97,0.213-1.408,0.433c-0.886,0.442-1.733,0.956-2.193,1.868c-0.115,0.233-0.197,0.501-0.242,0.778
				c-0.084-0.022-0.169-0.04-0.252-0.059c-0.642-0.125-1.287-0.074-1.895,0.165c-1.088,0.43-1.796,1.635-1.855,2.761
				c-0.072,1.303,0.887,2.449,2.123,2.77c0.63,0.162,1.341,0.087,1.949-0.125c0.389-0.135,0.775-0.299,1.118-0.523
				c0.181,0.24,0.396,0.46,0.646,0.661c0.78,0.619,1.786,0.895,2.768,0.975c0.475,0.037,0.913-0.012,1.371-0.134
				c0.225-0.062,0.454-0.094,0.678-0.168c0.237-0.08,0.466-0.183,0.69-0.293c0.359-0.171,0.752-0.394,1.052-0.671
				c0.116,0.11,0.24,0.214,0.369,0.311c0.704,0.528,1.561,0.822,2.443,0.835c0.916,0.018,1.818-0.195,2.653-0.566
				c0.6-0.267,1.12-0.68,1.572-1.153c0.743,0.549,1.638,0.896,2.552,1.069c0.712,0.134,1.399,0.198,2.124,0.141
				c0.696-0.057,1.364-0.216,2.004-0.507c1.064-0.483,2.229-1.408,2.399-2.624C172.498,48.377,171.656,47.303,170.469,47.017z"/>
			<path style="fill:#FFFFFF;" d="M171.759,50.204c-0.274,0.563-0.854,0.994-1.365,1.331c-1.188,0.784-2.681,0.94-4.064,0.75
				c-0.77-0.107-1.467-0.291-2.172-0.617c-0.243-0.114-0.47-0.244-0.689-0.389c0.06-0.068,0.118-0.139,0.175-0.209
				c-0.074,0.062-0.153,0.119-0.227,0.174c-0.291,0.205-0.586,0.411-0.887,0.598c-0.037,0.022-0.072,0.044-0.109,0.064
				c-0.218,0.15-0.446,0.291-0.688,0.408c-0.372,0.179-0.775,0.296-1.173,0.393c-0.423,0.107-0.856,0.193-1.294,0.212
				c-0.37,0.016-0.734-0.023-1.089-0.102c-0.508-0.074-1.013-0.218-1.454-0.481c-0.267-0.16-0.528-0.35-0.727-0.592
				c-0.13-0.164-0.229-0.384-0.401-0.518c0.043,0.095,0.091,0.188,0.145,0.283c0.092,0.162,0.207,0.309,0.334,0.446
				c-0.318,0.239-0.712,0.405-1.07,0.563c-0.808,0.357-1.705,0.575-2.591,0.507c-0.919-0.073-1.815-0.352-2.606-0.824
				c-0.262-0.157-0.488-0.342-0.684-0.551c0.001-0.001,0.001-0.001,0.002-0.002c-0.232-0.225-0.43-0.482-0.586-0.762
				c0.099,0.246,0.22,0.481,0.366,0.699c-0.316,0.156-0.661,0.273-0.979,0.372c-0.584,0.183-1.229,0.235-1.828,0.098
				c-1.157-0.264-1.928-1.272-1.998-2.428c-0.066-1.079,0.613-2.229,1.603-2.677c0.576-0.26,1.23-0.305,1.85-0.199
				c0.087,0.017,0.173,0.037,0.256,0.059c-0.016,0.121-0.025,0.242-0.027,0.363c0.01,0.129,0.014,0.258,0.047,0.385
				c0.047,0.169,0.107,0.337,0.18,0.499c-0.07-0.477-0.022-0.94,0.128-1.406c0.026-0.082,0.059-0.158,0.093-0.234
				c0.042-0.113,0.09-0.226,0.147-0.339c0.407-0.819,1.198-1.258,1.967-1.685c0.817-0.453,1.763-0.603,2.686-0.43
				c0.165,0.032,0.324,0.076,0.479,0.133c-0.071,0.379-0.012,0.775,0.227,1.134c-0.15-0.493-0.129-1.05,0.132-1.479
				c0.13-0.268,0.321-0.515,0.563-0.739c0.057-0.05,0.117-0.097,0.186-0.138c0.002,0.004,0.005,0.01,0.008,0.013
				c0.002,0,0.006-0.003,0.01-0.003c0.045-0.027,0.09-0.052,0.137-0.074c-0.001-0.006-0.003-0.01-0.006-0.014
				c0.268-0.127,0.585-0.196,0.85-0.248c0.207-0.042,0.414-0.069,0.627-0.053c0.048,0.005,0.093,0.012,0.141,0.021
				c0.013,0.003,0.026,0.003,0.041,0.003c-0.15-0.052-0.304-0.078-0.465-0.078c-0.233-0.002-0.463,0.021-0.691,0.052
				c-0.202,0.036-0.399,0.084-0.586,0.161c-0.194-0.359-0.294-0.745-0.314-1.157c-0.024-0.493,0.02-1.007,0.236-1.458
				c0.206-0.43,0.515-0.844,0.873-1.159c0.744-0.657,1.669-0.969,2.667-0.857c0.809,0.089,1.722,0.546,2.089,1.291
				c-0.255,0.082-0.501,0.193-0.731,0.324c-0.151,0.103-0.294,0.218-0.415,0.357c0.541-0.448,1.309-0.676,2.03-0.631
				c0.76-0.028,1.5,0.171,2.128,0.625c0.695,0.498,1.361,1.177,1.648,1.988c0.086,0.244,0.138,0.494,0.165,0.743
				c0.06,0.26,0.057,0.542,0.056,0.801c-0.002,0.069-0.004,0.137-0.007,0.205c0.035-0.216,0.055-0.432,0.057-0.65
				c0.02-0.002,0.039-0.005,0.059-0.007c0.442-0.051,0.879-0.042,1.315,0.035c0.837,0.144,1.674,0.556,2.236,1.191
				c0.277,0.314,0.451,0.689,0.612,1.07c0.187,0.445,0.165,0.958,0.039,1.42c-0.017,0.058-0.033,0.115-0.052,0.172
				c-0.006,0-0.01,0-0.013,0c-0.222,0.021-0.44,0.084-0.652,0.144c-0.095,0.026-0.172,0.053-0.226,0.125
				c0.007-0.001,0.012-0.002,0.017-0.003c0.008-0.002,0.013-0.004,0.024-0.008c0.165-0.121,0.431-0.126,0.62-0.135
				c0.14-0.005,0.279-0.018,0.418-0.006c0-0.002,0-0.002,0.002-0.003c0.272,0.009,0.549,0.065,0.811,0.148
				c0.634,0.197,1.165,0.656,1.431,1.257C172.045,49.023,172.02,49.667,171.759,50.204z"/>
			<path style="opacity:0.5;fill:#D8D8D8;" d="M158.096,41.233c-0.01,0.154,0.015,0.281,0.062,0.396
				c-0.012-0.486,0.293-1.057,0.606-1.389c0.135-0.141,0.282-0.265,0.44-0.372c0.091-0.084,0.19-0.162,0.294-0.233
				c0.23-0.131,0.477-0.242,0.731-0.324c-0.084-0.169-0.197-0.321-0.328-0.461C159.064,38.987,158.164,40.042,158.096,41.233z"/>
			<path style="opacity:0.5;fill:#D8D8D8;" d="M154.679,42.652c0.187-0.077,0.384-0.125,0.586-0.161
				c0.228-0.031,0.458-0.054,0.691-0.052c0.132,0,0.256,0.016,0.377,0.051c0.422,0.035,0.842,0.153,1.23,0.302
				c0.443,0.173,0.863,0.392,1.232,0.683c-0.797-1.195-2.497-1.892-3.838-1.316c-0.04,0.016-0.099,0.016-0.12-0.03
				c-0.272-0.611-0.36-1.333-0.266-2.023c-0.188,0.435-0.23,0.92-0.207,1.389C154.385,41.907,154.484,42.293,154.679,42.652z"/>
			<path style="opacity:0.5;fill:#D8D8D8;" d="M171.801,48.472c-0.266-0.601-0.797-1.06-1.431-1.257
				c-0.262-0.083-0.538-0.139-0.811-0.148c-0.002,0-0.002,0-0.002,0.003c-0.139-0.012-0.278,0.001-0.418,0.006
				c-0.19,0.009-0.455,0.014-0.62,0.135c-0.012,0.004-0.017,0.006-0.024,0.008c-0.005,0-0.01,0.001-0.017,0.003
				c0.054-0.072,0.131-0.099,0.226-0.125c0.212-0.06,0.431-0.122,0.652-0.144c0.003,0,0.007,0,0.013,0
				c0.019-0.057,0.035-0.114,0.052-0.172c0.126-0.462,0.148-0.975-0.039-1.42c-0.161-0.381-0.335-0.756-0.612-1.07
				c-0.473-0.535-1.142-0.91-1.84-1.101c0.769,0.48,1.396,1.125,1.424,2.115c0.019,0.692-0.128,1.554-0.516,2.221
				c0.141-0.024,0.28-0.044,0.424-0.062c0.604-0.068,1.244-0.163,1.829,0.052c0.462,0.172,0.641,0.616,0.503,1.075
				c-0.209,0.686-0.729,1.206-1.378,1.506c-1.287,0.596-2.814,0.525-4.143,0.095c-0.896-0.288-1.786-0.762-2.38-1.479
				c-0.639,1.305-1.857,2.25-3.452,2.283c-1.819,0.039-3.87-1.083-4.463-2.838c0.016,0.575,0.188,1.163,0.426,1.625
				c0.02,0.043,0.008,0.092-0.034,0.118c-1.3,0.818-3.977,1.686-5.536,1.039c-0.852-0.35-1.25-1.095-1.603-2.005
				c-0.071,0.635,0.076,1.332,0.32,2.005c0.021,0.061-0.198,0.094-0.249,0.101c-1.094,0.127-2.419,0.012-3.228-0.826
				c-0.427-0.441-0.617-0.978-0.65-1.536c-0.099,0.308-0.145,0.631-0.125,0.946c0.07,1.156,0.841,2.164,1.998,2.428
				c0.6,0.137,1.244,0.085,1.828-0.098c0.317-0.099,0.662-0.216,0.979-0.372c-0.146-0.218-0.268-0.453-0.366-0.699
				c0.156,0.279,0.354,0.537,0.586,0.762c-0.001,0.001-0.001,0.001-0.002,0.002c0.195,0.209,0.422,0.394,0.684,0.551
				c0.791,0.473,1.687,0.751,2.606,0.824c0.886,0.067,1.783-0.15,2.591-0.507c0.358-0.157,0.752-0.324,1.07-0.563
				c-0.127-0.137-0.242-0.284-0.334-0.446c-0.054-0.094-0.102-0.188-0.145-0.283c0.172,0.134,0.271,0.354,0.401,0.518
				c0.198,0.243,0.46,0.432,0.727,0.592c0.441,0.263,0.946,0.407,1.454,0.481c0.354,0.079,0.719,0.118,1.089,0.102
				c0.437-0.019,0.871-0.104,1.294-0.212c0.397-0.097,0.801-0.214,1.173-0.393c0.242-0.117,0.471-0.257,0.688-0.408
				c0.037-0.021,0.072-0.042,0.109-0.064c0.301-0.188,0.596-0.394,0.887-0.598c0.073-0.055,0.152-0.112,0.227-0.174
				c-0.057,0.071-0.115,0.141-0.175,0.209c0.22,0.145,0.446,0.275,0.689,0.389c0.705,0.327,1.401,0.51,2.172,0.617
				c1.383,0.19,2.876,0.034,4.064-0.75c0.512-0.337,1.091-0.768,1.365-1.331C172.02,49.667,172.045,49.023,171.801,48.472z"/>
			<path style="fill:#FFFFFF;" d="M154.614,42.873c-0.009,0.007-0.014,0.01-0.021,0.016c0.008-0.005,0.016-0.006,0.024-0.009
				C154.616,42.876,154.614,42.875,154.614,42.873z"/>
		</g>
	</g>
	<g style="clip-path:url(#SVGID_00000008135657470140988860000016899206133051567802_);">
		<path style="opacity:0.5;fill:#F7AEBB;" d="M129.861,17.156c-0.178-0.041-0.365-0.056-0.547-0.05
			c0.006-0.015,0.01-0.031,0.018-0.045c0.095-0.283,0.133-0.644,0.036-0.929c-0.1-0.291-0.248-0.578-0.45-0.812
			c-0.383-0.441-0.959-0.685-1.531-0.763c-0.302-0.039-0.602-0.018-0.901,0.031c-0.001-0.228-0.031-0.454-0.088-0.673
			c-0.147-0.582-0.613-1.09-1.101-1.428c-0.513-0.358-1.145-0.41-1.743-0.279c-0.063,0.013-0.125,0.03-0.188,0.05
			c-0.216-0.483-0.768-0.765-1.275-0.866c-0.335-0.069-0.706-0.044-1.034,0.048c-0.317,0.088-0.582,0.258-0.83,0.468
			c-0.244,0.202-0.436,0.486-0.578,0.765c-0.158,0.307-0.185,0.667-0.174,1.006c0.01,0.279,0.105,0.523,0.248,0.752
			c-0.071,0.037-0.138,0.081-0.199,0.135c-0.201,0.172-0.353,0.399-0.42,0.64c-0.078-0.034-0.157-0.062-0.241-0.087
			c-0.313-0.091-0.628-0.114-0.952-0.096c-0.312,0.019-0.616,0.136-0.894,0.275c-0.564,0.281-1.103,0.608-1.395,1.187
			c-0.073,0.148-0.125,0.318-0.153,0.494c-0.054-0.014-0.108-0.025-0.161-0.037c-0.407-0.08-0.817-0.047-1.204,0.104
			c-0.691,0.273-1.141,1.039-1.179,1.755c-0.046,0.828,0.563,1.556,1.349,1.761c0.4,0.102,0.853,0.055,1.239-0.08
			c0.247-0.086,0.492-0.19,0.711-0.332c0.114,0.152,0.251,0.292,0.41,0.42c0.496,0.393,1.136,0.568,1.759,0.619
			c0.302,0.023,0.581-0.007,0.871-0.085c0.144-0.04,0.289-0.06,0.431-0.107c0.151-0.051,0.297-0.116,0.439-0.186
			c0.229-0.108,0.478-0.251,0.668-0.426c0.074,0.069,0.152,0.136,0.234,0.197c0.448,0.335,0.992,0.522,1.553,0.531
			c0.582,0.012,1.156-0.124,1.687-0.36c0.382-0.169,0.712-0.432,0.999-0.732c0.472,0.349,1.041,0.569,1.622,0.679
			c0.452,0.086,0.889,0.126,1.35,0.09c0.442-0.036,0.867-0.137,1.273-0.322c0.676-0.307,1.417-0.895,1.524-1.667
			C131.151,18.021,130.616,17.338,129.861,17.156z"/>
		<g>
			<path style="fill:#FFFFFF;" d="M129.346,16.542c-0.179-0.042-0.365-0.056-0.548-0.05c0.006-0.015,0.011-0.031,0.02-0.045
				c0.095-0.283,0.132-0.644,0.035-0.929c-0.1-0.292-0.249-0.578-0.45-0.812c-0.383-0.441-0.959-0.685-1.531-0.764
				c-0.303-0.039-0.602-0.018-0.901,0.031c-0.001-0.227-0.031-0.453-0.088-0.673c-0.147-0.582-0.613-1.089-1.101-1.428
				c-0.514-0.358-1.145-0.41-1.743-0.28c-0.063,0.013-0.125,0.03-0.188,0.05c-0.215-0.483-0.768-0.764-1.274-0.866
				c-0.336-0.069-0.706-0.044-1.033,0.048c-0.318,0.088-0.583,0.257-0.832,0.467c-0.243,0.203-0.435,0.487-0.577,0.765
				c-0.158,0.308-0.186,0.667-0.174,1.006c0.009,0.279,0.105,0.523,0.248,0.752c-0.071,0.037-0.138,0.081-0.199,0.135
				c-0.201,0.172-0.353,0.399-0.42,0.641c-0.078-0.034-0.158-0.063-0.241-0.087c-0.313-0.09-0.628-0.114-0.952-0.096
				c-0.313,0.018-0.616,0.136-0.896,0.275c-0.563,0.281-1.101,0.608-1.394,1.188c-0.073,0.148-0.125,0.318-0.154,0.495
				c-0.053-0.014-0.107-0.025-0.159-0.038c-0.408-0.08-0.818-0.047-1.205,0.104c-0.691,0.273-1.142,1.039-1.18,1.754
				c-0.045,0.829,0.564,1.556,1.35,1.761c0.4,0.102,0.852,0.055,1.239-0.08c0.246-0.085,0.492-0.19,0.71-0.332
				c0.114,0.152,0.252,0.292,0.411,0.42c0.496,0.394,1.135,0.568,1.759,0.62c0.302,0.024,0.58-0.007,0.871-0.085
				c0.143-0.04,0.288-0.06,0.431-0.107c0.151-0.051,0.296-0.116,0.438-0.187c0.229-0.109,0.479-0.25,0.669-0.426
				c0.073,0.07,0.152,0.136,0.234,0.198c0.448,0.335,0.992,0.522,1.553,0.53c0.582,0.012,1.156-0.123,1.687-0.359
				c0.381-0.169,0.712-0.432,0.999-0.733c0.473,0.349,1.041,0.569,1.622,0.68c0.452,0.085,0.89,0.125,1.35,0.089
				c0.442-0.036,0.867-0.137,1.274-0.322c0.676-0.307,1.417-0.895,1.525-1.667C130.635,17.406,130.101,16.724,129.346,16.542z"/>
			<path style="fill:#FFFFFF;" d="M130.165,18.567c-0.175,0.358-0.542,0.632-0.867,0.846c-0.755,0.499-1.703,0.598-2.582,0.477
				c-0.49-0.068-0.933-0.185-1.381-0.392c-0.154-0.072-0.299-0.155-0.438-0.247c0.037-0.043,0.075-0.088,0.11-0.133
				c-0.047,0.039-0.098,0.075-0.144,0.111c-0.185,0.13-0.373,0.261-0.563,0.38c-0.023,0.014-0.046,0.028-0.069,0.041
				c-0.139,0.095-0.284,0.185-0.438,0.259c-0.236,0.113-0.493,0.188-0.746,0.25c-0.269,0.068-0.544,0.123-0.822,0.135
				c-0.235,0.01-0.467-0.015-0.691-0.065c-0.323-0.047-0.643-0.139-0.925-0.306c-0.169-0.101-0.335-0.223-0.461-0.376
				c-0.083-0.104-0.146-0.245-0.255-0.33c0.027,0.061,0.058,0.12,0.092,0.18c0.058,0.103,0.131,0.195,0.212,0.283
				c-0.203,0.151-0.452,0.257-0.681,0.358c-0.513,0.227-1.083,0.365-1.646,0.322c-0.584-0.046-1.154-0.224-1.657-0.524
				c-0.166-0.1-0.31-0.217-0.435-0.35c0.001-0.001,0.001-0.001,0.001-0.002c-0.146-0.143-0.272-0.306-0.372-0.484
				c0.064,0.156,0.14,0.306,0.233,0.444c-0.201,0.099-0.42,0.173-0.622,0.236c-0.371,0.117-0.781,0.149-1.162,0.062
				c-0.735-0.167-1.225-0.808-1.27-1.542c-0.042-0.686,0.39-1.417,1.019-1.701c0.366-0.165,0.782-0.193,1.175-0.127
				c0.056,0.01,0.11,0.024,0.163,0.037c-0.01,0.078-0.017,0.154-0.018,0.231c0.006,0.082,0.009,0.165,0.03,0.245
				c0.029,0.107,0.067,0.214,0.114,0.317c-0.045-0.303-0.015-0.597,0.081-0.893c0.017-0.052,0.037-0.1,0.059-0.149
				c0.027-0.072,0.058-0.143,0.094-0.216c0.259-0.521,0.762-0.8,1.25-1.071c0.519-0.288,1.12-0.383,1.707-0.273
				c0.104,0.021,0.206,0.048,0.304,0.084c-0.045,0.241-0.007,0.493,0.145,0.721c-0.096-0.313-0.082-0.667,0.084-0.939
				c0.082-0.17,0.204-0.327,0.358-0.47c0.035-0.032,0.073-0.062,0.117-0.087c0.002,0.002,0.003,0.006,0.006,0.008
				c0,0,0.003-0.003,0.006-0.003c0.028-0.017,0.057-0.033,0.087-0.047c-0.001-0.004-0.002-0.006-0.004-0.009
				c0.17-0.081,0.372-0.125,0.54-0.158c0.132-0.027,0.263-0.044,0.399-0.034c0.03,0.003,0.059,0.008,0.089,0.014
				c0.009,0.002,0.018,0.002,0.026,0.002c-0.096-0.033-0.192-0.049-0.295-0.049c-0.149-0.002-0.294,0.013-0.439,0.033
				c-0.129,0.023-0.254,0.054-0.373,0.102c-0.123-0.228-0.187-0.473-0.199-0.735c-0.016-0.314,0.013-0.64,0.15-0.927
				c0.131-0.273,0.326-0.536,0.554-0.736c0.474-0.418,1.062-0.616,1.695-0.545c0.515,0.057,1.094,0.347,1.328,0.82
				c-0.162,0.052-0.318,0.123-0.466,0.206c-0.096,0.065-0.187,0.139-0.263,0.227c0.343-0.285,0.831-0.43,1.29-0.401
				c0.482-0.018,0.953,0.108,1.353,0.396c0.441,0.317,0.864,0.748,1.046,1.264c0.056,0.155,0.088,0.314,0.105,0.472
				c0.038,0.165,0.035,0.344,0.035,0.509c-0.001,0.044-0.003,0.087-0.004,0.13c0.021-0.137,0.034-0.275,0.035-0.414
				c0.013-0.001,0.025-0.003,0.038-0.004c0.28-0.032,0.559-0.026,0.836,0.022c0.532,0.092,1.063,0.354,1.42,0.757
				c0.178,0.199,0.288,0.438,0.39,0.68c0.119,0.282,0.105,0.608,0.025,0.902c-0.011,0.037-0.022,0.073-0.033,0.109
				c-0.003,0-0.006,0-0.008,0c-0.141,0.013-0.28,0.053-0.414,0.091c-0.061,0.016-0.109,0.034-0.143,0.08
				c0.004-0.002,0.007-0.002,0.011-0.002c0.004-0.001,0.008-0.002,0.015-0.005c0.105-0.077,0.273-0.081,0.394-0.086
				c0.089-0.003,0.178-0.012,0.266-0.004c0-0.001,0-0.001,0.001-0.001c0.173,0.006,0.349,0.042,0.515,0.094
				c0.403,0.125,0.74,0.417,0.91,0.799C130.347,17.817,130.332,18.226,130.165,18.567z"/>
			<path style="opacity:0.5;fill:#D8D8D8;" d="M121.482,12.867c-0.006,0.098,0.01,0.178,0.039,0.251
				c-0.008-0.309,0.187-0.671,0.385-0.883c0.086-0.089,0.18-0.168,0.28-0.236c0.058-0.053,0.121-0.103,0.187-0.148
				c0.147-0.083,0.304-0.154,0.466-0.206c-0.054-0.107-0.126-0.205-0.209-0.293C122.098,11.439,121.525,12.11,121.482,12.867z"/>
			<path style="opacity:0.5;fill:#D8D8D8;" d="M119.311,13.768c0.119-0.048,0.244-0.079,0.373-0.102
				c0.146-0.02,0.29-0.035,0.439-0.033c0.083,0,0.162,0.01,0.239,0.032c0.268,0.022,0.535,0.098,0.781,0.192
				c0.281,0.11,0.549,0.248,0.783,0.434c-0.507-0.759-1.587-1.202-2.439-0.836c-0.025,0.009-0.063,0.009-0.076-0.019
				c-0.173-0.388-0.229-0.847-0.169-1.285c-0.119,0.276-0.146,0.585-0.131,0.882C119.124,13.294,119.188,13.54,119.311,13.768z"/>
			<path style="opacity:0.5;fill:#D8D8D8;" d="M130.192,17.467c-0.17-0.382-0.507-0.674-0.91-0.799
				c-0.166-0.053-0.342-0.088-0.515-0.094c-0.001,0-0.001,0-0.001,0.001c-0.088-0.007-0.177,0.001-0.266,0.004
				c-0.121,0.005-0.289,0.009-0.394,0.086c-0.007,0.002-0.011,0.003-0.015,0.005c-0.004,0.001-0.007,0.001-0.011,0.002
				c0.034-0.046,0.083-0.064,0.143-0.08c0.134-0.039,0.273-0.078,0.414-0.091c0.002,0,0.005,0,0.008,0
				c0.012-0.037,0.023-0.073,0.033-0.109c0.08-0.294,0.094-0.62-0.025-0.902c-0.102-0.243-0.212-0.481-0.39-0.68
				c-0.3-0.34-0.725-0.579-1.168-0.7c0.488,0.306,0.888,0.715,0.904,1.344c0.012,0.44-0.081,0.988-0.328,1.411
				c0.09-0.015,0.179-0.027,0.27-0.039c0.385-0.044,0.791-0.104,1.163,0.033c0.293,0.109,0.407,0.392,0.319,0.683
				c-0.133,0.436-0.463,0.766-0.875,0.957c-0.818,0.379-1.789,0.334-2.634,0.061c-0.568-0.183-1.135-0.484-1.512-0.939
				c-0.406,0.829-1.181,1.43-2.193,1.451c-1.157,0.024-2.46-0.688-2.837-1.804c0.01,0.365,0.119,0.739,0.271,1.033
				c0.014,0.027,0.005,0.058-0.021,0.075c-0.826,0.52-2.527,1.071-3.519,0.661c-0.541-0.222-0.795-0.696-1.018-1.274
				c-0.046,0.404,0.048,0.846,0.203,1.274c0.013,0.039-0.126,0.06-0.158,0.064c-0.695,0.08-1.538,0.008-2.052-0.525
				c-0.271-0.281-0.393-0.621-0.413-0.977c-0.063,0.196-0.092,0.401-0.079,0.602c0.045,0.734,0.534,1.375,1.27,1.542
				c0.381,0.087,0.791,0.055,1.162-0.062c0.202-0.063,0.421-0.137,0.622-0.236c-0.094-0.138-0.17-0.288-0.233-0.444
				c0.1,0.178,0.226,0.341,0.372,0.484c0,0.001,0,0.001-0.001,0.002c0.125,0.133,0.269,0.25,0.435,0.35
				c0.503,0.3,1.073,0.478,1.657,0.524c0.563,0.043,1.133-0.095,1.646-0.322c0.229-0.1,0.478-0.206,0.681-0.358
				c-0.081-0.088-0.154-0.181-0.212-0.283c-0.034-0.06-0.064-0.12-0.092-0.18c0.108,0.085,0.172,0.226,0.255,0.33
				c0.126,0.154,0.292,0.275,0.461,0.376c0.281,0.167,0.602,0.259,0.925,0.306c0.225,0.05,0.456,0.075,0.691,0.065
				c0.278-0.012,0.554-0.066,0.822-0.135c0.253-0.062,0.51-0.136,0.746-0.25c0.153-0.074,0.299-0.164,0.438-0.259
				c0.023-0.013,0.046-0.027,0.069-0.041c0.19-0.119,0.379-0.25,0.563-0.38c0.046-0.036,0.097-0.072,0.144-0.111
				c-0.035,0.045-0.073,0.089-0.11,0.133c0.139,0.092,0.283,0.175,0.438,0.247c0.448,0.207,0.891,0.324,1.381,0.392
				c0.879,0.121,1.827,0.022,2.582-0.477c0.325-0.214,0.692-0.488,0.867-0.846C130.332,18.226,130.347,17.817,130.192,17.467z"/>
			<path style="fill:#FFFFFF;" d="M119.27,13.908c-0.006,0.004-0.008,0.006-0.014,0.01c0.006-0.003,0.011-0.004,0.016-0.006
				C119.271,13.911,119.27,13.91,119.27,13.908z"/>
		</g>
	</g>
	<g style="clip-path:url(#SVGID_00000008135657470140988860000016899206133051567802_);">
		<path style="opacity:0.5;fill:#F7AEBB;" d="M66.006,7.391c-0.254-0.059-0.521-0.081-0.781-0.072
			c0.008-0.021,0.015-0.044,0.025-0.065c0.136-0.404,0.189-0.919,0.052-1.327c-0.143-0.416-0.355-0.826-0.644-1.161
			c-0.547-0.63-1.37-0.978-2.187-1.09c-0.432-0.056-0.859-0.026-1.288,0.045c-0.001-0.325-0.045-0.648-0.126-0.962
			c-0.211-0.832-0.876-1.557-1.572-2.04c-0.733-0.512-1.636-0.585-2.491-0.399c-0.091,0.019-0.179,0.043-0.269,0.071
			c-0.308-0.69-1.098-1.092-1.821-1.238c-0.479-0.098-1.01-0.063-1.478,0.068c-0.454,0.126-0.832,0.369-1.188,0.668
			c-0.349,0.289-0.621,0.695-0.826,1.093c-0.225,0.439-0.264,0.953-0.247,1.437c0.013,0.399,0.149,0.747,0.354,1.075
			c-0.103,0.053-0.197,0.115-0.285,0.193c-0.287,0.246-0.504,0.57-0.601,0.915c-0.11-0.048-0.224-0.089-0.344-0.125
			c-0.446-0.129-0.897-0.163-1.36-0.137c-0.447,0.026-0.881,0.194-1.279,0.393c-0.805,0.401-1.574,0.869-1.992,1.697
			c-0.104,0.212-0.179,0.455-0.22,0.706c-0.076-0.019-0.154-0.036-0.229-0.053c-0.582-0.114-1.168-0.067-1.721,0.149
			c-0.987,0.39-1.63,1.485-1.684,2.508c-0.066,1.184,0.804,2.224,1.927,2.516c0.572,0.147,1.218,0.079,1.771-0.114
			c0.352-0.123,0.703-0.272,1.016-0.475c0.163,0.218,0.358,0.418,0.586,0.6c0.71,0.563,1.623,0.812,2.514,0.885
			c0.431,0.033,0.83-0.011,1.245-0.122c0.204-0.057,0.413-0.085,0.615-0.153c0.216-0.072,0.424-0.166,0.627-0.267
			c0.327-0.155,0.683-0.358,0.955-0.608c0.106,0.099,0.218,0.194,0.335,0.282c0.64,0.479,1.418,0.746,2.219,0.758
			c0.832,0.017,1.651-0.177,2.41-0.515c0.545-0.241,1.017-0.617,1.428-1.046c0.674,0.498,1.486,0.814,2.316,0.97
			c0.646,0.123,1.271,0.181,1.929,0.128c0.633-0.052,1.24-0.196,1.82-0.46c0.966-0.438,2.024-1.279,2.179-2.383
			C67.85,8.625,67.084,7.65,66.006,7.391z"/>
		<g>
			<path style="fill:#FFFFFF;" d="M65.269,6.513c-0.254-0.06-0.521-0.08-0.781-0.072c0.008-0.022,0.015-0.044,0.026-0.065
				c0.137-0.404,0.188-0.92,0.051-1.327c-0.143-0.417-0.355-0.826-0.644-1.16c-0.546-0.63-1.369-0.979-2.188-1.091
				c-0.433-0.056-0.859-0.025-1.288,0.045c-0.001-0.325-0.044-0.648-0.125-0.962c-0.211-0.832-0.876-1.556-1.573-2.04
				c-0.733-0.512-1.636-0.586-2.491-0.4c-0.09,0.019-0.179,0.043-0.269,0.071c-0.307-0.69-1.098-1.092-1.821-1.237
				c-0.479-0.099-1.009-0.063-1.476,0.069c-0.454,0.126-0.832,0.368-1.189,0.667c-0.348,0.29-0.621,0.696-0.825,1.093
				c-0.226,0.44-0.265,0.954-0.248,1.438c0.013,0.399,0.15,0.746,0.355,1.075c-0.102,0.053-0.196,0.116-0.285,0.193
				c-0.287,0.247-0.503,0.571-0.6,0.916c-0.111-0.048-0.226-0.089-0.345-0.124c-0.446-0.129-0.896-0.164-1.36-0.138
				c-0.446,0.026-0.88,0.194-1.279,0.393c-0.804,0.401-1.573,0.869-1.992,1.697c-0.104,0.211-0.179,0.454-0.22,0.707
				c-0.076-0.02-0.153-0.036-0.227-0.054c-0.584-0.114-1.169-0.067-1.722,0.149c-0.988,0.39-1.631,1.485-1.686,2.507
				c-0.065,1.184,0.806,2.224,1.929,2.517c0.571,0.146,1.217,0.079,1.77-0.114c0.352-0.122,0.704-0.271,1.016-0.475
				c0.163,0.218,0.359,0.418,0.587,0.6c0.708,0.563,1.622,0.812,2.514,0.885c0.431,0.034,0.828-0.01,1.244-0.121
				c0.204-0.057,0.412-0.086,0.615-0.153c0.217-0.073,0.423-0.166,0.627-0.267c0.326-0.156,0.684-0.358,0.955-0.609
				c0.105,0.1,0.219,0.194,0.336,0.283c0.64,0.478,1.417,0.746,2.219,0.758c0.831,0.017,1.651-0.177,2.409-0.514
				c0.545-0.242,1.018-0.617,1.428-1.048c0.675,0.499,1.487,0.813,2.317,0.971c0.646,0.122,1.271,0.179,1.929,0.128
				c0.633-0.051,1.239-0.196,1.82-0.461c0.965-0.438,2.023-1.279,2.179-2.382C67.111,7.748,66.348,6.772,65.269,6.513z"/>
			<path style="fill:#FFFFFF;" d="M66.44,9.407c-0.25,0.511-0.774,0.903-1.24,1.208c-1.077,0.712-2.434,0.854-3.689,0.681
				c-0.699-0.097-1.331-0.264-1.972-0.56c-0.221-0.103-0.428-0.221-0.626-0.353c0.054-0.062,0.107-0.125,0.158-0.19
				c-0.067,0.056-0.14,0.108-0.206,0.159c-0.264,0.186-0.532,0.373-0.805,0.543c-0.034,0.02-0.065,0.039-0.1,0.059
				c-0.198,0.136-0.405,0.264-0.625,0.37c-0.338,0.162-0.704,0.269-1.066,0.356c-0.384,0.098-0.777,0.176-1.175,0.193
				c-0.336,0.014-0.667-0.021-0.988-0.093c-0.462-0.067-0.919-0.198-1.321-0.437c-0.241-0.145-0.479-0.318-0.659-0.538
				c-0.118-0.148-0.209-0.349-0.364-0.471c0.039,0.087,0.082,0.171,0.131,0.257c0.083,0.147,0.188,0.279,0.303,0.405
				c-0.289,0.216-0.646,0.368-0.972,0.511c-0.733,0.324-1.548,0.522-2.352,0.46c-0.835-0.065-1.648-0.319-2.368-0.748
				c-0.237-0.143-0.442-0.311-0.62-0.5c0.001-0.001,0.001-0.001,0.001-0.002c-0.21-0.204-0.389-0.438-0.531-0.691
				c0.09,0.223,0.199,0.438,0.333,0.635c-0.288,0.142-0.601,0.248-0.89,0.338c-0.53,0.167-1.115,0.213-1.66,0.088
				c-1.05-0.239-1.75-1.155-1.814-2.204c-0.06-0.98,0.558-2.024,1.456-2.431c0.524-0.236,1.117-0.276,1.679-0.181
				c0.08,0.015,0.157,0.033,0.233,0.053c-0.015,0.111-0.023,0.22-0.025,0.33c0.009,0.117,0.013,0.235,0.043,0.35
				c0.043,0.154,0.097,0.306,0.163,0.453c-0.063-0.434-0.021-0.853,0.116-1.276c0.024-0.074,0.054-0.143,0.084-0.213
				c0.039-0.103,0.083-0.205,0.134-0.308c0.37-0.744,1.088-1.143,1.786-1.531c0.742-0.411,1.601-0.547,2.439-0.391
				c0.15,0.029,0.295,0.069,0.435,0.121c-0.064,0.344-0.01,0.704,0.205,1.03c-0.136-0.447-0.116-0.952,0.12-1.342
				c0.118-0.244,0.293-0.468,0.513-0.671c0.051-0.045,0.104-0.088,0.168-0.125c0.002,0.004,0.004,0.009,0.008,0.012
				c0,0,0.005-0.003,0.008-0.003c0.041-0.024,0.082-0.047,0.124-0.067c0-0.006-0.002-0.009-0.005-0.012
				c0.242-0.116,0.531-0.178,0.771-0.226c0.188-0.039,0.376-0.063,0.57-0.048c0.043,0.005,0.083,0.012,0.127,0.02
				c0.012,0.002,0.024,0.002,0.037,0.002c-0.137-0.047-0.275-0.071-0.422-0.071c-0.213-0.002-0.42,0.019-0.628,0.047
				c-0.184,0.033-0.363,0.077-0.532,0.146c-0.177-0.326-0.267-0.676-0.285-1.05c-0.022-0.448,0.019-0.914,0.215-1.324
				c0.188-0.39,0.467-0.766,0.792-1.052c0.676-0.598,1.517-0.881,2.421-0.779c0.735,0.081,1.563,0.496,1.898,1.172
				C55.739-0.41,55.517-0.31,55.307-0.19c-0.137,0.093-0.267,0.198-0.376,0.325c0.49-0.408,1.187-0.614,1.843-0.573
				c0.69-0.026,1.363,0.155,1.933,0.566c0.632,0.453,1.236,1.069,1.495,1.806c0.079,0.221,0.125,0.449,0.151,0.675
				c0.054,0.236,0.05,0.491,0.05,0.727c-0.001,0.063-0.004,0.125-0.006,0.186c0.031-0.196,0.049-0.392,0.051-0.591
				c0.018-0.002,0.036-0.004,0.054-0.006c0.401-0.045,0.798-0.038,1.194,0.031c0.761,0.131,1.52,0.505,2.029,1.082
				c0.254,0.285,0.411,0.625,0.558,0.972c0.17,0.403,0.15,0.869,0.035,1.29c-0.015,0.052-0.03,0.104-0.047,0.156
				c-0.005,0-0.008,0-0.012,0c-0.201,0.019-0.399,0.075-0.592,0.13c-0.086,0.023-0.156,0.048-0.205,0.114
				c0.006-0.002,0.011-0.002,0.016-0.003c0.006-0.002,0.011-0.003,0.021-0.007c0.15-0.11,0.391-0.115,0.563-0.123
				c0.127-0.004,0.254-0.017,0.38-0.006c0-0.001,0-0.001,0.001-0.002c0.247,0.008,0.498,0.059,0.735,0.135
				c0.576,0.178,1.058,0.596,1.3,1.141C66.7,8.334,66.679,8.918,66.44,9.407z"/>
			<path style="opacity:0.5;fill:#D8D8D8;" d="M54.034,1.261c-0.01,0.14,0.013,0.255,0.056,0.359
				c-0.012-0.441,0.266-0.96,0.55-1.261c0.123-0.128,0.256-0.24,0.4-0.337c0.082-0.076,0.173-0.146,0.267-0.211
				c0.21-0.119,0.433-0.22,0.665-0.294c-0.076-0.153-0.18-0.292-0.298-0.419C54.913-0.779,54.096,0.18,54.034,1.261z"/>
			<path style="opacity:0.5;fill:#D8D8D8;" d="M50.931,2.548c0.169-0.069,0.349-0.113,0.532-0.146
				c0.208-0.028,0.415-0.049,0.628-0.047c0.119,0,0.231,0.014,0.342,0.045c0.383,0.032,0.765,0.14,1.117,0.274
				c0.401,0.157,0.783,0.355,1.119,0.62c-0.725-1.085-2.268-1.717-3.486-1.194c-0.036,0.014-0.089,0.014-0.108-0.028
				c-0.247-0.555-0.328-1.21-0.241-1.836c-0.171,0.395-0.21,0.836-0.188,1.261C50.664,1.872,50.754,2.223,50.931,2.548z"/>
			<path style="opacity:0.5;fill:#D8D8D8;" d="M66.479,7.834c-0.242-0.545-0.724-0.963-1.3-1.141
				c-0.237-0.076-0.488-0.126-0.735-0.135c-0.001,0-0.001,0-0.001,0.002c-0.126-0.01-0.253,0.002-0.38,0.006
				c-0.173,0.008-0.413,0.013-0.563,0.123c-0.011,0.003-0.016,0.005-0.021,0.007c-0.005,0.002-0.01,0.002-0.016,0.003
				c0.049-0.066,0.119-0.091,0.205-0.114c0.192-0.055,0.391-0.112,0.592-0.13c0.004,0,0.007,0,0.012,0
				c0.017-0.052,0.032-0.104,0.047-0.156c0.115-0.42,0.135-0.886-0.035-1.29c-0.146-0.347-0.304-0.687-0.558-0.972
				c-0.428-0.486-1.035-0.827-1.669-1c0.698,0.437,1.268,1.022,1.293,1.921c0.017,0.629-0.117,1.411-0.47,2.016
				c0.129-0.022,0.256-0.039,0.386-0.055c0.55-0.063,1.13-0.148,1.662,0.047c0.418,0.156,0.582,0.559,0.456,0.976
				c-0.189,0.623-0.662,1.095-1.251,1.368c-1.169,0.541-2.556,0.477-3.763,0.086c-0.812-0.262-1.622-0.691-2.16-1.342
				c-0.58,1.185-1.688,2.043-3.135,2.073c-1.653,0.035-3.516-0.983-4.053-2.578c0.014,0.522,0.169,1.057,0.386,1.476
				c0.019,0.039,0.008,0.083-0.03,0.107c-1.181,0.743-3.611,1.531-5.027,0.944c-0.773-0.317-1.136-0.994-1.455-1.821
				c-0.065,0.577,0.069,1.209,0.29,1.821c0.02,0.055-0.18,0.085-0.226,0.091c-0.994,0.115-2.197,0.011-2.932-0.75
				c-0.388-0.402-0.561-0.887-0.59-1.395c-0.09,0.28-0.131,0.573-0.114,0.859c0.064,1.049,0.765,1.965,1.814,2.204
				c0.545,0.125,1.13,0.078,1.66-0.088c0.289-0.09,0.602-0.196,0.89-0.338c-0.134-0.197-0.243-0.412-0.333-0.635
				c0.143,0.254,0.321,0.487,0.531,0.691c0,0.001,0,0.001-0.001,0.002c0.178,0.19,0.383,0.358,0.62,0.5
				c0.72,0.429,1.533,0.683,2.368,0.748c0.804,0.062,1.618-0.136,2.352-0.46c0.326-0.143,0.683-0.294,0.972-0.511
				c-0.114-0.125-0.22-0.258-0.303-0.405c-0.049-0.086-0.092-0.171-0.131-0.257c0.155,0.122,0.246,0.322,0.364,0.471
				c0.18,0.22,0.418,0.393,0.659,0.538c0.402,0.239,0.859,0.37,1.321,0.437c0.321,0.072,0.652,0.106,0.988,0.093
				c0.397-0.017,0.791-0.095,1.175-0.193c0.361-0.088,0.728-0.194,1.066-0.356c0.22-0.106,0.427-0.234,0.625-0.37
				c0.034-0.019,0.065-0.039,0.1-0.059c0.272-0.17,0.541-0.357,0.805-0.543c0.066-0.051,0.139-0.103,0.206-0.159
				c-0.051,0.064-0.104,0.128-0.158,0.19c0.198,0.132,0.405,0.25,0.626,0.353c0.641,0.296,1.272,0.463,1.972,0.56
				c1.256,0.173,2.612,0.032,3.689-0.681c0.466-0.306,0.99-0.697,1.24-1.208C66.679,8.918,66.7,8.334,66.479,7.834z"/>
			<path style="fill:#FFFFFF;" d="M50.872,2.749c-0.009,0.006-0.012,0.009-0.02,0.015c0.008-0.005,0.015-0.006,0.022-0.008
				C50.874,2.753,50.872,2.751,50.872,2.749z"/>
		</g>
	</g>
	<g style="clip-path:url(#SVGID_00000008135657470140988860000016899206133051567802_);">
		<g>
			<path style="fill:#F386A0;" d="M36.93,68.757c-1.064-0.169-1.559,0.916-1.559,1.442c0-0.527-0.477-1.663-1.544-1.486
				c-1.246,0.207-1.486,1.669-0.846,2.584c0.577,0.824,2.305,2.138,2.33,2.155c0.025-0.017,1.789-1.281,2.39-2.088
				C38.368,70.467,38.177,68.955,36.93,68.757z"/>
		</g>
	</g>
	<g style="clip-path:url(#SVGID_00000008135657470140988860000016899206133051567802_);">
		<g>
			<path style="fill:#F386A0;" d="M89.98,4.804c-1.064-0.17-1.559,0.915-1.559,1.442c0-0.527-0.477-1.663-1.544-1.486
				c-1.246,0.207-1.486,1.669-0.846,2.584c0.577,0.824,2.305,2.138,2.33,2.155c0.025-0.017,1.789-1.281,2.39-2.088
				C91.419,6.515,91.228,5.002,89.98,4.804z"/>
		</g>
	</g>
	<g style="clip-path:url(#SVGID_00000008135657470140988860000016899206133051567802_);">
		<g>
			<path style="fill:#F386A0;" d="M29.538,13.144c-1.064-0.169-1.559,0.916-1.559,1.442c0-0.527-0.476-1.663-1.544-1.486
				c-1.246,0.207-1.486,1.669-0.846,2.584c0.577,0.824,2.305,2.138,2.33,2.155c0.025-0.017,1.789-1.281,2.39-2.088
				C30.977,14.855,30.785,13.342,29.538,13.144z"/>
		</g>
	</g>
	<g style="clip-path:url(#SVGID_00000008135657470140988860000016899206133051567802_);">
		<g>
			<path style="fill:#F386A0;" d="M48.733,56.899c-0.68-0.442-1.351,0.152-1.513,0.514c0.162-0.362,0.182-1.288-0.605-1.493
				c-0.919-0.24-1.532,0.691-1.371,1.516c0.145,0.743,0.929,2.173,0.941,2.193c0.022-0.004,1.621-0.333,2.28-0.704
				C49.198,58.514,49.529,57.417,48.733,56.899z"/>
		</g>
	</g>
	<g style="clip-path:url(#SVGID_00000008135657470140988860000016899206133051567802_);">
		<g>
			<path style="fill:#F386A0;" d="M131.084,46.254c-0.8,0.13-0.896,1.022-0.772,1.398c-0.124-0.376-0.732-1.075-1.452-0.696
				c-0.841,0.441-0.668,1.543,0.007,2.044c0.607,0.452,2.15,0.982,2.173,0.988c0.014-0.018,0.974-1.337,1.212-2.055
				C132.516,47.135,132.021,46.101,131.084,46.254z"/>
		</g>
	</g>
	<g style="clip-path:url(#SVGID_00000008135657470140988860000016899206133051567802_);">
		<g>
			<path style="fill:#F386A0;" d="M174.763,7.519c-0.8,0.13-0.897,1.022-0.772,1.398c-0.124-0.376-0.732-1.075-1.453-0.696
				c-0.841,0.441-0.667,1.542,0.007,2.044c0.607,0.452,2.15,0.982,2.173,0.988c0.015-0.018,0.975-1.337,1.213-2.055
				C176.193,8.4,175.7,7.366,174.763,7.519z"/>
		</g>
	</g>
	<g style="clip-path:url(#SVGID_00000008135657470140988860000016899206133051567802_);">
		<g>
			<path style="fill:#F386A0;" d="M27.506,47.256c-0.68-0.442-1.351,0.152-1.513,0.514c0.162-0.362,0.182-1.288-0.605-1.493
				c-0.919-0.24-1.532,0.691-1.371,1.516c0.145,0.743,0.929,2.173,0.941,2.193c0.022-0.004,1.621-0.333,2.28-0.704
				C27.971,48.872,28.302,47.774,27.506,47.256z"/>
		</g>
	</g>
	<g style="clip-path:url(#SVGID_00000008135657470140988860000016899206133051567802_);">
		<g>
			<path style="fill:#F386A0;" d="M74.628,13.433c-0.68-0.442-1.351,0.152-1.513,0.514c0.162-0.362,0.182-1.288-0.605-1.493
				c-0.919-0.24-1.532,0.691-1.371,1.516c0.144,0.743,0.929,2.173,0.941,2.193c0.022-0.004,1.621-0.333,2.28-0.704
				C75.093,15.048,75.424,13.951,74.628,13.433z"/>
		</g>
	</g>
	<g style="clip-path:url(#SVGID_00000008135657470140988860000016899206133051567802_);">
		<g>
			<path style="fill:#F386A0;" d="M167.534,30.703c-0.68-0.442-1.351,0.152-1.513,0.514c0.162-0.362,0.182-1.288-0.605-1.493
				c-0.919-0.24-1.532,0.691-1.371,1.516c0.145,0.743,0.929,2.173,0.941,2.193c0.022-0.004,1.621-0.333,2.28-0.704
				C167.999,32.318,168.33,31.221,167.534,30.703z"/>
		</g>
	</g>
	<g style="clip-path:url(#SVGID_00000008135657470140988860000016899206133051567802_);">
		<g>
			<path style="fill:#F386A0;" d="M175.513,62.828c-0.68-0.442-1.351,0.152-1.513,0.514c0.162-0.362,0.182-1.288-0.605-1.493
				c-0.919-0.24-1.532,0.691-1.371,1.516c0.145,0.743,0.929,2.173,0.941,2.193c0.022-0.004,1.621-0.333,2.28-0.704
				C175.978,64.443,176.309,63.346,175.513,62.828z"/>
		</g>
	</g>
	<g style="clip-path:url(#SVGID_00000008135657470140988860000016899206133051567802_);">
		<g>
			<path style="fill:#F386A0;" d="M131.109,3.286c-0.68-0.442-1.351,0.152-1.513,0.514c0.162-0.362,0.182-1.288-0.606-1.493
				c-0.919-0.24-1.532,0.691-1.371,1.516c0.145,0.743,0.929,2.173,0.941,2.193c0.022-0.004,1.621-0.333,2.28-0.704
				C131.574,4.901,131.905,3.803,131.109,3.286z"/>
		</g>
	</g>
	<g style="clip-path:url(#SVGID_00000008135657470140988860000016899206133051567802_);">
		<g>
			<path style="fill:#F386A0;" d="M12.02,57.547c-1.287,0.129-1.529,1.541-1.368,2.152c-0.161-0.611-1.063-1.785-2.247-1.253
				c-1.384,0.621-1.216,2.393-0.19,3.259c0.922,0.78,3.33,1.776,3.364,1.789c0.024-0.027,1.686-2.035,2.136-3.156
				C14.214,59.093,13.528,57.396,12.02,57.547z"/>
		</g>
	</g>
	<g style="clip-path:url(#SVGID_00000008135657470140988860000016899206133051567802_);">
		<g>
			<path style="fill:#F386A0;" d="M136.185,25.651c-1.288,0.129-1.53,1.541-1.369,2.152c-0.161-0.611-1.063-1.785-2.247-1.253
				c-1.384,0.621-1.215,2.393-0.19,3.259c0.922,0.78,3.33,1.776,3.364,1.789c0.024-0.027,1.686-2.035,2.136-3.156
				C138.378,27.197,137.692,25.5,136.185,25.651z"/>
		</g>
	</g>
	<g style="clip-path:url(#SVGID_00000008135657470140988860000016899206133051567802_);">
		<g>
			<path style="fill:#F386A0;" d="M102.24,10.02c-1.287,0.129-1.529,1.541-1.368,2.152c-0.161-0.611-1.063-1.785-2.247-1.253
				c-1.384,0.621-1.216,2.393-0.19,3.259c0.922,0.78,3.33,1.776,3.364,1.789c0.024-0.027,1.686-2.035,2.136-3.156
				C104.435,11.566,103.749,9.869,102.24,10.02z"/>
		</g>
	</g>
	<g style="clip-path:url(#SVGID_00000008135657470140988860000016899206133051567802_);">
		<g>
			<path style="fill:#F386A0;" d="M48.586,37.137c-1.288,0.129-1.53,1.541-1.369,2.152c-0.161-0.611-1.063-1.785-2.247-1.253
				c-1.384,0.621-1.215,2.393-0.191,3.259c0.922,0.78,3.33,1.776,3.364,1.789c0.024-0.027,1.686-2.035,2.136-3.156
				C50.779,38.683,50.094,36.986,48.586,37.137z"/>
		</g>
	</g>
	<g style="clip-path:url(#SVGID_00000008135657470140988860000016899206133051567802_);">
		<g>
			<path style="fill:#F386A0;" d="M133.014,75.47c-1.096-0.341-1.783,0.727-1.864,1.281c0.081-0.555-0.247-1.826-1.399-1.803
				c-1.345,0.027-1.822,1.532-1.286,2.594c0.481,0.958,2.102,2.607,2.125,2.629c0.029-0.014,2.082-1.076,2.839-1.835
				C134.269,77.493,134.298,75.87,133.014,75.47z"/>
		</g>
	</g>
	<g style="clip-path:url(#SVGID_00000008135657470140988860000016899206133051567802_);">
		<g>
			<path style="fill:#F386A0;" d="M45.296,18.979c-1.096-0.341-1.783,0.726-1.864,1.281c0.081-0.555-0.247-1.826-1.399-1.803
				c-1.345,0.027-1.822,1.532-1.286,2.594c0.481,0.958,2.102,2.607,2.125,2.628c0.029-0.014,2.082-1.076,2.839-1.835
				C46.551,21.002,46.58,19.378,45.296,18.979z"/>
		</g>
	</g>
	<g style="clip-path:url(#SVGID_00000008135657470140988860000016899206133051567802_);">
		<g>
			<path style="fill:#F386A0;" d="M154.089,9.552c-1.288,0.129-1.53,1.54-1.369,2.152c-0.161-0.611-1.063-1.785-2.247-1.253
				c-1.384,0.621-1.215,2.393-0.19,3.259c0.922,0.78,3.33,1.776,3.364,1.789c0.024-0.027,1.686-2.035,2.136-3.156
				C156.282,11.098,155.597,9.4,154.089,9.552z"/>
		</g>
	</g>
	<g style="clip-path:url(#SVGID_00000008135657470140988860000016899206133051567802_);">
		<g>
			<path style="fill:#F386A0;" d="M146.809,63.694c-1.288,0.129-1.53,1.541-1.369,2.152c-0.161-0.611-1.063-1.785-2.247-1.253
				c-1.384,0.621-1.215,2.393-0.19,3.259c0.922,0.78,3.33,1.776,3.364,1.789c0.025-0.027,1.686-2.035,2.136-3.156
				C149.002,65.24,148.316,63.543,146.809,63.694z"/>
		</g>
	</g>
	<g style="clip-path:url(#SVGID_00000008135657470140988860000016899206133051567802_);">
		<g>
			<path style="fill:#F386A0;" d="M11.475,4.152c-1.287,0.129-1.529,1.54-1.368,2.152C9.945,5.692,9.044,4.519,7.859,5.051
				C6.476,5.672,6.644,7.444,7.669,8.31c0.922,0.78,3.33,1.776,3.364,1.789c0.024-0.027,1.686-2.035,2.136-3.156
				C13.669,5.698,12.983,4,11.475,4.152z"/>
		</g>
	</g>
</g>
</svg>
